<svg width="190" height="178" viewBox="0 0 190 178" fill="none" xmlns="http://www.w3.org/2000/svg">
<rect width="190" height="178" rx="10" fill="url(#paint0_linear_1113_2945)"/>
<path d="M37.7607 121.538H34.6812L34.6646 120.019H37.354C37.8078 120.019 38.1924 119.953 38.5078 119.82C38.8288 119.681 39.0723 119.485 39.2383 119.23C39.4043 118.97 39.4873 118.658 39.4873 118.292C39.4873 117.889 39.4098 117.559 39.2549 117.305C39.0999 117.05 38.862 116.865 38.541 116.749C38.2256 116.632 37.8216 116.574 37.3291 116.574H35.312V127H33.2285V114.914H37.3291C37.9932 114.914 38.5853 114.978 39.1055 115.105C39.6312 115.232 40.0767 115.431 40.4419 115.703C40.8127 115.968 41.0921 116.306 41.2803 116.715C41.474 117.125 41.5708 117.612 41.5708 118.176C41.5708 118.674 41.4518 119.131 41.2139 119.546C40.9759 119.955 40.6245 120.29 40.1597 120.55C39.6948 120.81 39.1165 120.965 38.4248 121.015L37.7607 121.538ZM37.6694 127H34.0254L34.9634 125.348H37.6694C38.1398 125.348 38.5327 125.271 38.8481 125.116C39.1636 124.955 39.3988 124.737 39.5537 124.46C39.7142 124.178 39.7944 123.848 39.7944 123.472C39.7944 123.079 39.7253 122.739 39.5869 122.451C39.4486 122.158 39.23 121.934 38.9312 121.779C38.6323 121.618 38.2422 121.538 37.7607 121.538H35.4199L35.4365 120.019H38.4829L38.9561 120.592C39.6201 120.614 40.1652 120.761 40.5913 121.032C41.0229 121.303 41.3439 121.654 41.5542 122.086C41.7645 122.518 41.8696 122.982 41.8696 123.48C41.8696 124.25 41.7008 124.894 41.3633 125.415C41.0312 125.935 40.5526 126.33 39.9272 126.602C39.3019 126.867 38.5493 127 37.6694 127ZM45.2563 120.874H47.9043C48.679 120.874 49.3376 121.004 49.8799 121.264C50.4222 121.524 50.8345 121.887 51.1167 122.352C51.4045 122.811 51.5483 123.337 51.5483 123.929C51.5483 124.366 51.4681 124.773 51.3076 125.149C51.1471 125.52 50.9092 125.843 50.5938 126.12C50.2839 126.397 49.902 126.613 49.4482 126.768C49 126.923 48.4854 127 47.9043 127H43.9282V118.019H45.937V125.415H47.9043C48.3027 125.415 48.6209 125.345 48.8589 125.207C49.0968 125.069 49.2684 124.889 49.3735 124.667C49.4842 124.446 49.5396 124.211 49.5396 123.962C49.5396 123.707 49.4842 123.467 49.3735 123.24C49.2684 123.013 49.0968 122.827 48.8589 122.684C48.6209 122.54 48.3027 122.468 47.9043 122.468H45.2563V120.874ZM55.0845 118.019V127H53.084V118.019H55.0845ZM63.4766 118.019V119.612H59.0439V118.019H63.4766ZM59.5171 118.019V127H57.5166V118.019H59.5171ZM65.0454 118.019V127H63.0366V118.019H65.0454ZM69.7686 126.021L72.209 118.019H74.3506L70.748 128.37C70.665 128.591 70.5571 128.832 70.4243 129.092C70.2915 129.352 70.1172 129.598 69.9014 129.831C69.6911 130.069 69.4282 130.259 69.1128 130.403C68.7974 130.553 68.4155 130.627 67.9673 130.627C67.7902 130.627 67.6187 130.611 67.4526 130.578C67.2922 130.55 67.14 130.52 66.9961 130.486L66.9878 128.959C67.0431 128.965 67.1095 128.97 67.187 128.976C67.27 128.981 67.3364 128.984 67.3862 128.984C67.7183 128.984 67.995 128.942 68.2163 128.859C68.4377 128.782 68.6175 128.655 68.7559 128.478C68.8997 128.3 69.0215 128.062 69.1211 127.764L69.7686 126.021ZM68.3906 118.019L70.5239 124.742L70.8809 126.851L69.4946 127.208L66.2324 118.019H68.3906ZM79.0488 125.572C79.3753 125.572 79.6686 125.509 79.9287 125.381C80.1943 125.249 80.4074 125.066 80.5679 124.833C80.7339 124.601 80.8252 124.333 80.8418 124.028H82.7261C82.715 124.609 82.5435 125.138 82.2114 125.614C81.8794 126.09 81.4395 126.469 80.8916 126.751C80.3438 127.028 79.7378 127.166 79.0737 127.166C78.3875 127.166 77.7899 127.05 77.2808 126.817C76.7716 126.579 76.3483 126.253 76.0107 125.838C75.6732 125.423 75.4186 124.944 75.2471 124.402C75.0811 123.86 74.998 123.278 74.998 122.659V122.368C74.998 121.748 75.0811 121.167 75.2471 120.625C75.4186 120.077 75.6732 119.596 76.0107 119.181C76.3483 118.766 76.7716 118.442 77.2808 118.209C77.7899 117.972 78.3848 117.853 79.0654 117.853C79.7848 117.853 80.4157 117.996 80.958 118.284C81.5003 118.566 81.9264 118.962 82.2363 119.471C82.5518 119.975 82.715 120.561 82.7261 121.231H80.8418C80.8252 120.899 80.7422 120.6 80.5928 120.334C80.4489 120.063 80.2441 119.847 79.9785 119.687C79.7184 119.527 79.4058 119.446 79.0405 119.446C78.6366 119.446 78.3018 119.529 78.0361 119.695C77.7705 119.856 77.563 120.077 77.4136 120.359C77.2642 120.636 77.1562 120.949 77.0898 121.297C77.029 121.64 76.9985 121.997 76.9985 122.368V122.659C76.9985 123.029 77.029 123.389 77.0898 123.738C77.1507 124.086 77.2559 124.399 77.4053 124.676C77.5602 124.947 77.7705 125.166 78.0361 125.332C78.3018 125.492 78.6393 125.572 79.0488 125.572ZM86.4199 118.019V127H84.4194V118.019H86.4199ZM92.2803 118.019L88.2378 123.422H85.9551L85.6895 121.613H87.3579L89.7817 118.019H92.2803ZM89.9395 127L87.2334 123.082L88.8105 121.945L92.5708 127H89.9395ZM99.7925 121.771V123.348H95.144V121.771H99.7925ZM95.7251 118.019V127H93.7246V118.019H95.7251ZM101.237 118.019V127H99.2363V118.019H101.237ZM105.437 124.078L108.965 118.019H110.965V127H108.965V120.932L105.437 127H103.437V118.019H105.437V124.078ZM115.24 118.019V127H113.24V118.019H115.24ZM121.101 118.019L117.058 123.422H114.775L114.51 121.613H116.178L118.602 118.019H121.101ZM118.76 127L116.054 123.082L117.631 121.945L121.391 127H118.76ZM125.085 126.021L127.525 118.019H129.667L126.064 128.37C125.981 128.591 125.874 128.832 125.741 129.092C125.608 129.352 125.434 129.598 125.218 129.831C125.007 130.069 124.745 130.259 124.429 130.403C124.114 130.553 123.732 130.627 123.284 130.627C123.107 130.627 122.935 130.611 122.769 130.578C122.609 130.55 122.456 130.52 122.312 130.486L122.304 128.959C122.36 128.965 122.426 128.97 122.503 128.976C122.586 128.981 122.653 128.984 122.703 128.984C123.035 128.984 123.311 128.942 123.533 128.859C123.754 128.782 123.934 128.655 124.072 128.478C124.216 128.3 124.338 128.062 124.438 127.764L125.085 126.021ZM123.707 118.019L125.84 124.742L126.197 126.851L124.811 127.208L121.549 118.019H123.707ZM38.375 134.873V147H36.3745V137.247L33.4111 138.251V136.599L38.1343 134.873H38.375ZM48.0371 134.873V147H46.0366V137.247L43.0732 138.251V136.599L47.7964 134.873H48.0371ZM58.7451 138.019V147H56.7446V138.019H58.7451ZM64.6055 138.019L60.563 143.422H58.2803L58.0146 141.613H59.6831L62.1069 138.019H64.6055ZM62.2646 147L59.5586 143.082L61.1357 141.945L64.896 147H62.2646ZM72.0181 138.019V139.612H67.6353V138.019H72.0181ZM73.5869 138.019V147H71.5864V138.019H73.5869ZM67.1455 138.019H69.1211L68.8804 142.459C68.8472 143.118 68.7808 143.699 68.6812 144.203C68.5871 144.701 68.4598 145.13 68.2993 145.489C68.1388 145.843 67.9424 146.131 67.71 146.353C67.4775 146.574 67.2064 146.737 66.8965 146.842C66.5866 146.947 66.238 147 65.8506 147H65.228L65.2197 145.356L65.5352 145.332C65.7399 145.315 65.917 145.262 66.0664 145.174C66.2158 145.08 66.3431 144.947 66.4482 144.775C66.5589 144.604 66.6475 144.382 66.7139 144.111C66.7858 143.84 66.8411 143.519 66.8799 143.148C66.9242 142.778 66.9574 142.346 66.9795 141.854L67.1455 138.019ZM80.7754 145.199V140.916C80.7754 140.595 80.7173 140.318 80.6011 140.085C80.4849 139.853 80.3078 139.673 80.0698 139.546C79.8374 139.419 79.5441 139.355 79.1899 139.355C78.8634 139.355 78.5812 139.41 78.3433 139.521C78.1053 139.632 77.9199 139.781 77.7871 139.969C77.6543 140.157 77.5879 140.37 77.5879 140.608H75.5957C75.5957 140.254 75.6815 139.911 75.853 139.579C76.0246 139.247 76.2736 138.951 76.6001 138.691C76.9266 138.431 77.3167 138.226 77.7705 138.077C78.2243 137.927 78.7334 137.853 79.2979 137.853C79.973 137.853 80.5706 137.966 81.0908 138.193C81.6165 138.42 82.0288 138.763 82.3276 139.222C82.632 139.676 82.7842 140.246 82.7842 140.932V144.925C82.7842 145.334 82.8118 145.702 82.8672 146.029C82.9281 146.35 83.0138 146.629 83.1245 146.867V147H81.0742C80.9801 146.784 80.9054 146.51 80.8501 146.178C80.8003 145.841 80.7754 145.514 80.7754 145.199ZM81.0659 141.538L81.0825 142.775H79.6465C79.2757 142.775 78.9492 142.811 78.667 142.883C78.3848 142.949 78.1496 143.049 77.9614 143.182C77.7733 143.314 77.6322 143.475 77.5381 143.663C77.444 143.851 77.397 144.064 77.397 144.302C77.397 144.54 77.4523 144.759 77.563 144.958C77.6737 145.152 77.8341 145.304 78.0444 145.415C78.2603 145.525 78.5203 145.581 78.8247 145.581C79.2342 145.581 79.5911 145.498 79.8955 145.332C80.2054 145.16 80.4489 144.952 80.626 144.709C80.8031 144.46 80.8971 144.225 80.9082 144.003L81.5557 144.892C81.4893 145.118 81.3758 145.362 81.2153 145.622C81.0549 145.882 80.8446 146.131 80.5845 146.369C80.3299 146.602 80.0228 146.792 79.6631 146.942C79.3089 147.091 78.8994 147.166 78.4346 147.166C77.848 147.166 77.325 147.05 76.8657 146.817C76.4064 146.579 76.0467 146.261 75.7866 145.863C75.5265 145.459 75.3965 145.002 75.3965 144.493C75.3965 144.017 75.485 143.597 75.6621 143.231C75.8447 142.861 76.1104 142.551 76.459 142.302C76.8132 142.053 77.2448 141.865 77.7539 141.737C78.263 141.604 78.8441 141.538 79.4971 141.538H81.0659ZM88.5449 145.572C88.8714 145.572 89.1647 145.509 89.4248 145.381C89.6904 145.249 89.9035 145.066 90.064 144.833C90.23 144.601 90.3213 144.333 90.3379 144.028H92.2222C92.2111 144.609 92.0396 145.138 91.7075 145.614C91.3755 146.09 90.9355 146.469 90.3877 146.751C89.8398 147.028 89.2339 147.166 88.5698 147.166C87.8836 147.166 87.286 147.05 86.7769 146.817C86.2677 146.579 85.8444 146.253 85.5068 145.838C85.1693 145.423 84.9147 144.944 84.7432 144.402C84.5771 143.86 84.4941 143.278 84.4941 142.659V142.368C84.4941 141.748 84.5771 141.167 84.7432 140.625C84.9147 140.077 85.1693 139.596 85.5068 139.181C85.8444 138.766 86.2677 138.442 86.7769 138.209C87.286 137.972 87.8809 137.853 88.5615 137.853C89.2809 137.853 89.9118 137.996 90.4541 138.284C90.9964 138.566 91.4225 138.962 91.7324 139.471C92.0479 139.975 92.2111 140.561 92.2222 141.231H90.3379C90.3213 140.899 90.2383 140.6 90.0889 140.334C89.945 140.063 89.7402 139.847 89.4746 139.687C89.2145 139.527 88.9019 139.446 88.5366 139.446C88.1326 139.446 87.7979 139.529 87.5322 139.695C87.2666 139.856 87.0591 140.077 86.9097 140.359C86.7603 140.636 86.6523 140.949 86.5859 141.297C86.5251 141.64 86.4946 141.997 86.4946 142.368V142.659C86.4946 143.029 86.5251 143.389 86.5859 143.738C86.6468 144.086 86.752 144.399 86.9014 144.676C87.0563 144.947 87.2666 145.166 87.5322 145.332C87.7979 145.492 88.1354 145.572 88.5449 145.572ZM97.4268 145.572C97.7533 145.572 98.0465 145.509 98.3066 145.381C98.5723 145.249 98.7853 145.066 98.9458 144.833C99.1118 144.601 99.2031 144.333 99.2197 144.028H101.104C101.093 144.609 100.921 145.138 100.589 145.614C100.257 146.09 99.8174 146.469 99.2695 146.751C98.7217 147.028 98.1157 147.166 97.4517 147.166C96.7655 147.166 96.1678 147.05 95.6587 146.817C95.1496 146.579 94.7262 146.253 94.3887 145.838C94.0511 145.423 93.7965 144.944 93.625 144.402C93.459 143.86 93.376 143.278 93.376 142.659V142.368C93.376 141.748 93.459 141.167 93.625 140.625C93.7965 140.077 94.0511 139.596 94.3887 139.181C94.7262 138.766 95.1496 138.442 95.6587 138.209C96.1678 137.972 96.7627 137.853 97.4434 137.853C98.1628 137.853 98.7936 137.996 99.3359 138.284C99.8783 138.566 100.304 138.962 100.614 139.471C100.93 139.975 101.093 140.561 101.104 141.231H99.2197C99.2031 140.899 99.1201 140.6 98.9707 140.334C98.8268 140.063 98.6221 139.847 98.3564 139.687C98.0964 139.527 97.7837 139.446 97.4185 139.446C97.0145 139.446 96.6797 139.529 96.4141 139.695C96.1484 139.856 95.9409 140.077 95.7915 140.359C95.6421 140.636 95.5342 140.949 95.4678 141.297C95.4069 141.64 95.3765 141.997 95.3765 142.368V142.659C95.3765 143.029 95.4069 143.389 95.4678 143.738C95.5286 144.086 95.6338 144.399 95.7832 144.676C95.9382 144.947 96.1484 145.166 96.4141 145.332C96.6797 145.492 97.0173 145.572 97.4268 145.572ZM107.703 145.199V140.916C107.703 140.595 107.645 140.318 107.529 140.085C107.413 139.853 107.236 139.673 106.998 139.546C106.765 139.419 106.472 139.355 106.118 139.355C105.791 139.355 105.509 139.41 105.271 139.521C105.033 139.632 104.848 139.781 104.715 139.969C104.582 140.157 104.516 140.37 104.516 140.608H102.523C102.523 140.254 102.609 139.911 102.781 139.579C102.952 139.247 103.201 138.951 103.528 138.691C103.854 138.431 104.244 138.226 104.698 138.077C105.152 137.927 105.661 137.853 106.226 137.853C106.901 137.853 107.498 137.966 108.019 138.193C108.544 138.42 108.957 138.763 109.255 139.222C109.56 139.676 109.712 140.246 109.712 140.932V144.925C109.712 145.334 109.74 145.702 109.795 146.029C109.856 146.35 109.942 146.629 110.052 146.867V147H108.002C107.908 146.784 107.833 146.51 107.778 146.178C107.728 145.841 107.703 145.514 107.703 145.199ZM107.994 141.538L108.01 142.775H106.574C106.203 142.775 105.877 142.811 105.595 142.883C105.312 142.949 105.077 143.049 104.889 143.182C104.701 143.314 104.56 143.475 104.466 143.663C104.372 143.851 104.325 144.064 104.325 144.302C104.325 144.54 104.38 144.759 104.491 144.958C104.601 145.152 104.762 145.304 104.972 145.415C105.188 145.525 105.448 145.581 105.752 145.581C106.162 145.581 106.519 145.498 106.823 145.332C107.133 145.16 107.377 144.952 107.554 144.709C107.731 144.46 107.825 144.225 107.836 144.003L108.483 144.892C108.417 145.118 108.304 145.362 108.143 145.622C107.983 145.882 107.772 146.131 107.512 146.369C107.258 146.602 106.951 146.792 106.591 146.942C106.237 147.091 105.827 147.166 105.362 147.166C104.776 147.166 104.253 147.05 103.793 146.817C103.334 146.579 102.974 146.261 102.714 145.863C102.454 145.459 102.324 145.002 102.324 144.493C102.324 144.017 102.413 143.597 102.59 143.231C102.772 142.861 103.038 142.551 103.387 142.302C103.741 142.053 104.173 141.865 104.682 141.737C105.191 141.604 105.772 141.538 106.425 141.538H107.994Z" fill="white"/>
<path d="M93.1875 64.0186V73H91.187V64.0186H93.1875ZM99.0479 64.0186L95.0054 69.4224H92.7227L92.457 67.6128H94.1255L96.5493 64.0186H99.0479ZM96.707 73L94.001 69.082L95.5781 67.9448L99.3384 73H96.707ZM106.46 64.0186V65.6123H102.078V64.0186H106.46ZM108.029 64.0186V73H106.029V64.0186H108.029ZM101.588 64.0186H103.563L103.323 68.4595C103.29 69.118 103.223 69.6991 103.124 70.2026C103.029 70.7007 102.902 71.1296 102.742 71.4893C102.581 71.8434 102.385 72.1312 102.152 72.3525C101.92 72.5739 101.649 72.7371 101.339 72.8423C101.029 72.9474 100.68 73 100.293 73H99.6704L99.6621 71.3564L99.9775 71.3315C100.182 71.3149 100.359 71.2624 100.509 71.1738C100.658 71.0798 100.785 70.9469 100.891 70.7754C101.001 70.6038 101.09 70.3825 101.156 70.1113C101.228 69.8402 101.284 69.5192 101.322 69.1484C101.367 68.7777 101.4 68.346 101.422 67.8535L101.588 64.0186ZM115.218 71.1987V66.9155C115.218 66.5946 115.16 66.3179 115.043 66.0854C114.927 65.853 114.75 65.6732 114.512 65.5459C114.28 65.4186 113.986 65.355 113.632 65.355C113.306 65.355 113.024 65.4103 112.786 65.521C112.548 65.6317 112.362 65.7811 112.229 65.9692C112.097 66.1574 112.03 66.3704 112.03 66.6084H110.038C110.038 66.2542 110.124 65.9111 110.295 65.5791C110.467 65.2471 110.716 64.951 111.042 64.6909C111.369 64.4308 111.759 64.2261 112.213 64.0767C112.667 63.9272 113.176 63.8525 113.74 63.8525C114.415 63.8525 115.013 63.966 115.533 64.1929C116.059 64.4198 116.471 64.7629 116.77 65.2222C117.074 65.6759 117.227 66.2459 117.227 66.9321V70.9248C117.227 71.3343 117.254 71.7023 117.31 72.0288C117.37 72.3498 117.456 72.6292 117.567 72.8672V73H115.517C115.423 72.7842 115.348 72.5103 115.292 72.1782C115.243 71.8407 115.218 71.5142 115.218 71.1987ZM115.508 67.5381L115.525 68.7749H114.089C113.718 68.7749 113.392 68.8109 113.109 68.8828C112.827 68.9492 112.592 69.0488 112.404 69.1816C112.216 69.3145 112.075 69.4749 111.98 69.6631C111.886 69.8512 111.839 70.0643 111.839 70.3022C111.839 70.5402 111.895 70.7588 112.005 70.958C112.116 71.1517 112.277 71.3039 112.487 71.4146C112.703 71.5252 112.963 71.5806 113.267 71.5806C113.677 71.5806 114.034 71.4976 114.338 71.3315C114.648 71.16 114.891 70.9525 115.068 70.709C115.245 70.46 115.34 70.2248 115.351 70.0034L115.998 70.8916C115.932 71.1185 115.818 71.362 115.658 71.6221C115.497 71.8822 115.287 72.1312 115.027 72.3691C114.772 72.6016 114.465 72.7925 114.105 72.9419C113.751 73.0913 113.342 73.166 112.877 73.166C112.29 73.166 111.767 73.0498 111.308 72.8174C110.849 72.5794 110.489 72.2612 110.229 71.8628C109.969 71.4588 109.839 71.0023 109.839 70.4932C109.839 70.0173 109.927 69.5967 110.104 69.2314C110.287 68.8607 110.553 68.5508 110.901 68.3018C111.256 68.0527 111.687 67.8646 112.196 67.7373C112.705 67.6045 113.286 67.5381 113.939 67.5381H115.508ZM122.987 71.5723C123.314 71.5723 123.607 71.5086 123.867 71.3813C124.133 71.2485 124.346 71.0659 124.506 70.8335C124.672 70.6011 124.764 70.3327 124.78 70.0283H126.665C126.653 70.6094 126.482 71.1379 126.15 71.6138C125.818 72.0897 125.378 72.4688 124.83 72.751C124.282 73.0277 123.676 73.166 123.012 73.166C122.326 73.166 121.728 73.0498 121.219 72.8174C120.71 72.5794 120.287 72.2529 119.949 71.8379C119.612 71.4229 119.357 70.9442 119.186 70.4019C119.02 69.8595 118.937 69.2785 118.937 68.6587V68.3682C118.937 67.7484 119.02 67.1673 119.186 66.625C119.357 66.0771 119.612 65.5957 119.949 65.1807C120.287 64.7656 120.71 64.4419 121.219 64.2095C121.728 63.9715 122.323 63.8525 123.004 63.8525C123.723 63.8525 124.354 63.9964 124.896 64.2842C125.439 64.5664 125.865 64.9621 126.175 65.4712C126.49 65.9748 126.653 66.5614 126.665 67.231H124.78C124.764 66.8989 124.681 66.6001 124.531 66.3345C124.387 66.0633 124.183 65.8475 123.917 65.687C123.657 65.5265 123.344 65.4463 122.979 65.4463C122.575 65.4463 122.24 65.5293 121.975 65.6953C121.709 65.8558 121.501 66.0771 121.352 66.3594C121.203 66.6361 121.095 66.9487 121.028 67.2974C120.967 67.6405 120.937 67.9974 120.937 68.3682V68.6587C120.937 69.0295 120.967 69.3892 121.028 69.7378C121.089 70.0864 121.194 70.3991 121.344 70.6758C121.499 70.9469 121.709 71.1655 121.975 71.3315C122.24 71.492 122.578 71.5723 122.987 71.5723ZM131.869 71.5723C132.196 71.5723 132.489 71.5086 132.749 71.3813C133.015 71.2485 133.228 71.0659 133.388 70.8335C133.554 70.6011 133.646 70.3327 133.662 70.0283H135.546C135.535 70.6094 135.364 71.1379 135.032 71.6138C134.7 72.0897 134.26 72.4688 133.712 72.751C133.164 73.0277 132.558 73.166 131.894 73.166C131.208 73.166 130.61 73.0498 130.101 72.8174C129.592 72.5794 129.169 72.2529 128.831 71.8379C128.493 71.4229 128.239 70.9442 128.067 70.4019C127.901 69.8595 127.818 69.2785 127.818 68.6587V68.3682C127.818 67.7484 127.901 67.1673 128.067 66.625C128.239 66.0771 128.493 65.5957 128.831 65.1807C129.169 64.7656 129.592 64.4419 130.101 64.2095C130.61 63.9715 131.205 63.8525 131.886 63.8525C132.605 63.8525 133.236 63.9964 133.778 64.2842C134.321 64.5664 134.747 64.9621 135.057 65.4712C135.372 65.9748 135.535 66.5614 135.546 67.231H133.662C133.646 66.8989 133.562 66.6001 133.413 66.3345C133.269 66.0633 133.064 65.8475 132.799 65.687C132.539 65.5265 132.226 65.4463 131.861 65.4463C131.457 65.4463 131.122 65.5293 130.856 65.6953C130.591 65.8558 130.383 66.0771 130.234 66.3594C130.084 66.6361 129.977 66.9487 129.91 67.2974C129.849 67.6405 129.819 67.9974 129.819 68.3682V68.6587C129.819 69.0295 129.849 69.3892 129.91 69.7378C129.971 70.0864 130.076 70.3991 130.226 70.6758C130.381 70.9469 130.591 71.1655 130.856 71.3315C131.122 71.492 131.46 71.5723 131.869 71.5723Z" fill="white"/>
<path d="M48.9321 36V73H40.4028V45.6566L32 48.1216V41.6161L48.1475 36H48.9321Z" fill="white"/>
<path d="M79 36V73H70.4707V45.6566L62.0679 48.1216V41.6161L78.2154 36H79Z" fill="white"/>
<defs>
<linearGradient id="paint0_linear_1113_2945" x1="0" y1="0" x2="185.33" y2="182.737" gradientUnits="userSpaceOnUse">
<stop stop-color="#4DC1FF"/>
<stop offset="1" stop-color="#0F91D6"/>
</linearGradient>
</defs>
</svg>
