<svg width="190" height="178" viewBox="0 0 190 178" fill="none" xmlns="http://www.w3.org/2000/svg">
<rect width="190" height="178" rx="10" fill="url(#paint0_linear_1114_3064)"/>
<path d="M68.1875 64.0186V73H66.187V64.0186H68.1875ZM74.0479 64.0186L70.0054 69.4224H67.7227L67.457 67.6128H69.1255L71.5493 64.0186H74.0479ZM71.707 73L69.001 69.082L70.5781 67.9448L74.3384 73H71.707ZM81.4604 64.0186V65.6123H77.0776V64.0186H81.4604ZM83.0293 64.0186V73H81.0288V64.0186H83.0293ZM76.5879 64.0186H78.5635L78.3228 68.4595C78.2896 69.118 78.2231 69.6991 78.1235 70.2026C78.0295 70.7007 77.9022 71.1296 77.7417 71.4893C77.5812 71.8434 77.3848 72.1312 77.1523 72.3525C76.9199 72.5739 76.6488 72.7371 76.3389 72.8423C76.029 72.9474 75.6803 73 75.293 73H74.6704L74.6621 71.3564L74.9775 71.3315C75.1823 71.3149 75.3594 71.2624 75.5088 71.1738C75.6582 71.0798 75.7855 70.9469 75.8906 70.7754C76.0013 70.6038 76.0898 70.3825 76.1562 70.1113C76.2282 69.8402 76.2835 69.5192 76.3223 69.1484C76.3665 68.7777 76.3997 68.346 76.4219 67.8535L76.5879 64.0186ZM90.2178 71.1987V66.9155C90.2178 66.5946 90.1597 66.3179 90.0435 66.0854C89.9272 65.853 89.7502 65.6732 89.5122 65.5459C89.2798 65.4186 88.9865 65.355 88.6323 65.355C88.3058 65.355 88.0236 65.4103 87.7856 65.521C87.5477 65.6317 87.3623 65.7811 87.2295 65.9692C87.0967 66.1574 87.0303 66.3704 87.0303 66.6084H85.0381C85.0381 66.2542 85.1239 65.9111 85.2954 65.5791C85.467 65.2471 85.716 64.951 86.0425 64.6909C86.369 64.4308 86.7591 64.2261 87.2129 64.0767C87.6667 63.9272 88.1758 63.8525 88.7402 63.8525C89.4154 63.8525 90.013 63.966 90.5332 64.1929C91.0589 64.4198 91.4712 64.7629 91.77 65.2222C92.0744 65.6759 92.2266 66.2459 92.2266 66.9321V70.9248C92.2266 71.3343 92.2542 71.7023 92.3096 72.0288C92.3704 72.3498 92.4562 72.6292 92.5669 72.8672V73H90.5166C90.4225 72.7842 90.3478 72.5103 90.2925 72.1782C90.2427 71.8407 90.2178 71.5142 90.2178 71.1987ZM90.5083 67.5381L90.5249 68.7749H89.0889C88.7181 68.7749 88.3916 68.8109 88.1094 68.8828C87.8271 68.9492 87.592 69.0488 87.4038 69.1816C87.2157 69.3145 87.0745 69.4749 86.9805 69.6631C86.8864 69.8512 86.8394 70.0643 86.8394 70.3022C86.8394 70.5402 86.8947 70.7588 87.0054 70.958C87.116 71.1517 87.2765 71.3039 87.4868 71.4146C87.7026 71.5252 87.9627 71.5806 88.2671 71.5806C88.6766 71.5806 89.0335 71.4976 89.3379 71.3315C89.6478 71.16 89.8913 70.9525 90.0684 70.709C90.2454 70.46 90.3395 70.2248 90.3506 70.0034L90.998 70.8916C90.9316 71.1185 90.8182 71.362 90.6577 71.6221C90.4972 71.8822 90.2869 72.1312 90.0269 72.3691C89.7723 72.6016 89.4652 72.7925 89.1055 72.9419C88.7513 73.0913 88.3418 73.166 87.877 73.166C87.2904 73.166 86.7674 73.0498 86.3081 72.8174C85.8488 72.5794 85.4891 72.2612 85.229 71.8628C84.9689 71.4588 84.8389 71.0023 84.8389 70.4932C84.8389 70.0173 84.9274 69.5967 85.1045 69.2314C85.2871 68.8607 85.5527 68.5508 85.9014 68.3018C86.2555 68.0527 86.6872 67.8646 87.1963 67.7373C87.7054 67.6045 88.2865 67.5381 88.9395 67.5381H90.5083ZM97.9873 71.5723C98.3138 71.5723 98.6071 71.5086 98.8672 71.3813C99.1328 71.2485 99.3459 71.0659 99.5063 70.8335C99.6724 70.6011 99.7637 70.3327 99.7803 70.0283H101.665C101.653 70.6094 101.482 71.1379 101.15 71.6138C100.818 72.0897 100.378 72.4688 99.8301 72.751C99.2822 73.0277 98.6763 73.166 98.0122 73.166C97.326 73.166 96.7284 73.0498 96.2192 72.8174C95.7101 72.5794 95.2868 72.2529 94.9492 71.8379C94.6117 71.4229 94.3571 70.9442 94.1855 70.4019C94.0195 69.8595 93.9365 69.2785 93.9365 68.6587V68.3682C93.9365 67.7484 94.0195 67.1673 94.1855 66.625C94.3571 66.0771 94.6117 65.5957 94.9492 65.1807C95.2868 64.7656 95.7101 64.4419 96.2192 64.2095C96.7284 63.9715 97.3232 63.8525 98.0039 63.8525C98.7233 63.8525 99.3542 63.9964 99.8965 64.2842C100.439 64.5664 100.865 64.9621 101.175 65.4712C101.49 65.9748 101.653 66.5614 101.665 67.231H99.7803C99.7637 66.8989 99.6807 66.6001 99.5312 66.3345C99.3874 66.0633 99.1826 65.8475 98.917 65.687C98.6569 65.5265 98.3442 65.4463 97.979 65.4463C97.575 65.4463 97.2402 65.5293 96.9746 65.6953C96.709 65.8558 96.5015 66.0771 96.3521 66.3594C96.2026 66.6361 96.0947 66.9487 96.0283 67.2974C95.9674 67.6405 95.937 67.9974 95.937 68.3682V68.6587C95.937 69.0295 95.9674 69.3892 96.0283 69.7378C96.0892 70.0864 96.1943 70.3991 96.3438 70.6758C96.4987 70.9469 96.709 71.1655 96.9746 71.3315C97.2402 71.492 97.5778 71.5723 97.9873 71.5723ZM106.869 71.5723C107.196 71.5723 107.489 71.5086 107.749 71.3813C108.015 71.2485 108.228 71.0659 108.388 70.8335C108.554 70.6011 108.646 70.3327 108.662 70.0283H110.546C110.535 70.6094 110.364 71.1379 110.032 71.6138C109.7 72.0897 109.26 72.4688 108.712 72.751C108.164 73.0277 107.558 73.166 106.894 73.166C106.208 73.166 105.61 73.0498 105.101 72.8174C104.592 72.5794 104.169 72.2529 103.831 71.8379C103.493 71.4229 103.239 70.9442 103.067 70.4019C102.901 69.8595 102.818 69.2785 102.818 68.6587V68.3682C102.818 67.7484 102.901 67.1673 103.067 66.625C103.239 66.0771 103.493 65.5957 103.831 65.1807C104.169 64.7656 104.592 64.4419 105.101 64.2095C105.61 63.9715 106.205 63.8525 106.886 63.8525C107.605 63.8525 108.236 63.9964 108.778 64.2842C109.321 64.5664 109.747 64.9621 110.057 65.4712C110.372 65.9748 110.535 66.5614 110.546 67.231H108.662C108.646 66.8989 108.562 66.6001 108.413 66.3345C108.269 66.0633 108.064 65.8475 107.799 65.687C107.539 65.5265 107.226 65.4463 106.861 65.4463C106.457 65.4463 106.122 65.5293 105.856 65.6953C105.591 65.8558 105.383 66.0771 105.234 66.3594C105.084 66.6361 104.977 66.9487 104.91 67.2974C104.849 67.6405 104.819 67.9974 104.819 68.3682V68.6587C104.819 69.0295 104.849 69.3892 104.91 69.7378C104.971 70.0864 105.076 70.3991 105.226 70.6758C105.381 70.9469 105.591 71.1655 105.856 71.3315C106.122 71.492 106.46 71.5723 106.869 71.5723Z" fill="white"/>
<path d="M38.7607 121.538H35.6812L35.6646 120.019H38.354C38.8078 120.019 39.1924 119.953 39.5078 119.82C39.8288 119.681 40.0723 119.485 40.2383 119.23C40.4043 118.97 40.4873 118.658 40.4873 118.292C40.4873 117.889 40.4098 117.559 40.2549 117.305C40.0999 117.05 39.862 116.865 39.541 116.749C39.2256 116.632 38.8216 116.574 38.3291 116.574H36.312V127H34.2285V114.914H38.3291C38.9932 114.914 39.5853 114.978 40.1055 115.105C40.6312 115.232 41.0767 115.431 41.4419 115.703C41.8127 115.968 42.0921 116.306 42.2803 116.715C42.474 117.125 42.5708 117.612 42.5708 118.176C42.5708 118.674 42.4518 119.131 42.2139 119.546C41.9759 119.955 41.6245 120.29 41.1597 120.55C40.6948 120.81 40.1165 120.965 39.4248 121.015L38.7607 121.538ZM38.6694 127H35.0254L35.9634 125.348H38.6694C39.1398 125.348 39.5327 125.271 39.8481 125.116C40.1636 124.955 40.3988 124.737 40.5537 124.46C40.7142 124.178 40.7944 123.848 40.7944 123.472C40.7944 123.079 40.7253 122.739 40.5869 122.451C40.4486 122.158 40.23 121.934 39.9312 121.779C39.6323 121.618 39.2422 121.538 38.7607 121.538H36.4199L36.4365 120.019H39.4829L39.9561 120.592C40.6201 120.614 41.1652 120.761 41.5913 121.032C42.0229 121.303 42.3439 121.654 42.5542 122.086C42.7645 122.518 42.8696 122.982 42.8696 123.48C42.8696 124.25 42.7008 124.894 42.3633 125.415C42.0312 125.935 41.5526 126.33 40.9272 126.602C40.3019 126.867 39.5493 127 38.6694 127ZM46.2563 120.874H48.9043C49.679 120.874 50.3376 121.004 50.8799 121.264C51.4222 121.524 51.8345 121.887 52.1167 122.352C52.4045 122.811 52.5483 123.337 52.5483 123.929C52.5483 124.366 52.4681 124.773 52.3076 125.149C52.1471 125.52 51.9092 125.843 51.5938 126.12C51.2839 126.397 50.902 126.613 50.4482 126.768C50 126.923 49.4854 127 48.9043 127H44.9282V118.019H46.937V125.415H48.9043C49.3027 125.415 49.6209 125.345 49.8589 125.207C50.0968 125.069 50.2684 124.889 50.3735 124.667C50.4842 124.446 50.5396 124.211 50.5396 123.962C50.5396 123.707 50.4842 123.467 50.3735 123.24C50.2684 123.013 50.0968 122.827 49.8589 122.684C49.6209 122.54 49.3027 122.468 48.9043 122.468H46.2563V120.874ZM56.0845 118.019V127H54.084V118.019H56.0845ZM64.4766 118.019V119.612H60.0439V118.019H64.4766ZM60.5171 118.019V127H58.5166V118.019H60.5171ZM66.0454 118.019V127H64.0366V118.019H66.0454ZM70.7686 126.021L73.209 118.019H75.3506L71.748 128.37C71.665 128.591 71.5571 128.832 71.4243 129.092C71.2915 129.352 71.1172 129.598 70.9014 129.831C70.6911 130.069 70.4282 130.259 70.1128 130.403C69.7974 130.553 69.4155 130.627 68.9673 130.627C68.7902 130.627 68.6187 130.611 68.4526 130.578C68.2922 130.55 68.14 130.52 67.9961 130.486L67.9878 128.959C68.0431 128.965 68.1095 128.97 68.187 128.976C68.27 128.981 68.3364 128.984 68.3862 128.984C68.7183 128.984 68.995 128.942 69.2163 128.859C69.4377 128.782 69.6175 128.655 69.7559 128.478C69.8997 128.3 70.0215 128.062 70.1211 127.764L70.7686 126.021ZM69.3906 118.019L71.5239 124.742L71.8809 126.851L70.4946 127.208L67.2324 118.019H69.3906ZM80.0488 125.572C80.3753 125.572 80.6686 125.509 80.9287 125.381C81.1943 125.249 81.4074 125.066 81.5679 124.833C81.7339 124.601 81.8252 124.333 81.8418 124.028H83.7261C83.715 124.609 83.5435 125.138 83.2114 125.614C82.8794 126.09 82.4395 126.469 81.8916 126.751C81.3438 127.028 80.7378 127.166 80.0737 127.166C79.3875 127.166 78.7899 127.05 78.2808 126.817C77.7716 126.579 77.3483 126.253 77.0107 125.838C76.6732 125.423 76.4186 124.944 76.2471 124.402C76.0811 123.86 75.998 123.278 75.998 122.659V122.368C75.998 121.748 76.0811 121.167 76.2471 120.625C76.4186 120.077 76.6732 119.596 77.0107 119.181C77.3483 118.766 77.7716 118.442 78.2808 118.209C78.7899 117.972 79.3848 117.853 80.0654 117.853C80.7848 117.853 81.4157 117.996 81.958 118.284C82.5003 118.566 82.9264 118.962 83.2363 119.471C83.5518 119.975 83.715 120.561 83.7261 121.231H81.8418C81.8252 120.899 81.7422 120.6 81.5928 120.334C81.4489 120.063 81.2441 119.847 80.9785 119.687C80.7184 119.527 80.4058 119.446 80.0405 119.446C79.6366 119.446 79.3018 119.529 79.0361 119.695C78.7705 119.856 78.563 120.077 78.4136 120.359C78.2642 120.636 78.1562 120.949 78.0898 121.297C78.029 121.64 77.9985 121.997 77.9985 122.368V122.659C77.9985 123.029 78.029 123.389 78.0898 123.738C78.1507 124.086 78.2559 124.399 78.4053 124.676C78.5602 124.947 78.7705 125.166 79.0361 125.332C79.3018 125.492 79.6393 125.572 80.0488 125.572ZM87.4199 118.019V127H85.4194V118.019H87.4199ZM93.2803 118.019L89.2378 123.422H86.9551L86.6895 121.613H88.3579L90.7817 118.019H93.2803ZM90.9395 127L88.2334 123.082L89.8105 121.945L93.5708 127H90.9395ZM100.792 121.771V123.348H96.144V121.771H100.792ZM96.7251 118.019V127H94.7246V118.019H96.7251ZM102.237 118.019V127H100.236V118.019H102.237ZM106.437 124.078L109.965 118.019H111.965V127H109.965V120.932L106.437 127H104.437V118.019H106.437V124.078ZM116.24 118.019V127H114.24V118.019H116.24ZM122.101 118.019L118.058 123.422H115.775L115.51 121.613H117.178L119.602 118.019H122.101ZM119.76 127L117.054 123.082L118.631 121.945L122.391 127H119.76ZM126.085 126.021L128.525 118.019H130.667L127.064 128.37C126.981 128.591 126.874 128.832 126.741 129.092C126.608 129.352 126.434 129.598 126.218 129.831C126.007 130.069 125.745 130.259 125.429 130.403C125.114 130.553 124.732 130.627 124.284 130.627C124.107 130.627 123.935 130.611 123.769 130.578C123.609 130.55 123.456 130.52 123.312 130.486L123.304 128.959C123.36 128.965 123.426 128.97 123.503 128.976C123.586 128.981 123.653 128.984 123.703 128.984C124.035 128.984 124.311 128.942 124.533 128.859C124.754 128.782 124.934 128.655 125.072 128.478C125.216 128.3 125.338 128.062 125.438 127.764L126.085 126.021ZM124.707 118.019L126.84 124.742L127.197 126.851L125.811 127.208L122.549 118.019H124.707ZM35.5234 145.423H35.6895C36.4531 145.423 37.0895 145.323 37.5986 145.124C38.1133 144.919 38.5228 144.637 38.8271 144.277C39.1315 143.918 39.3501 143.494 39.4829 143.007C39.6157 142.52 39.6821 141.992 39.6821 141.422V139.338C39.6821 138.846 39.6296 138.414 39.5244 138.043C39.4248 137.667 39.2809 137.354 39.0928 137.105C38.9102 136.851 38.6971 136.66 38.4536 136.533C38.2157 136.405 37.9583 136.342 37.6816 136.342C37.3773 136.342 37.1034 136.411 36.8599 136.549C36.6219 136.682 36.4199 136.868 36.2539 137.105C36.0934 137.338 35.9689 137.612 35.8804 137.927C35.7974 138.237 35.7559 138.569 35.7559 138.923C35.7559 139.255 35.7946 139.576 35.8721 139.886C35.9551 140.191 36.0768 140.462 36.2373 140.7C36.3978 140.938 36.5998 141.126 36.8433 141.264C37.0868 141.403 37.3717 141.472 37.6982 141.472C38.0081 141.472 38.2931 141.414 38.5532 141.297C38.8133 141.176 39.0402 141.012 39.2339 140.808C39.4276 140.603 39.5798 140.373 39.6904 140.119C39.8011 139.864 39.862 139.604 39.873 139.338L40.6367 139.571C40.6367 139.991 40.5482 140.406 40.3711 140.816C40.1995 141.22 39.9588 141.591 39.6489 141.928C39.3446 142.26 38.9876 142.526 38.5781 142.725C38.1742 142.924 37.7342 143.024 37.2583 143.024C36.6828 143.024 36.1737 142.916 35.731 142.7C35.2938 142.479 34.9285 142.18 34.6353 141.804C34.3475 141.427 34.1317 140.996 33.9878 140.509C33.8439 140.022 33.772 139.51 33.772 138.973C33.772 138.392 33.8605 137.847 34.0376 137.338C34.2147 136.829 34.472 136.381 34.8096 135.993C35.1471 135.6 35.5566 135.296 36.0381 135.08C36.5251 134.859 37.0757 134.748 37.6899 134.748C38.3429 134.748 38.9157 134.875 39.4082 135.13C39.9007 135.384 40.3158 135.736 40.6533 136.184C40.9909 136.632 41.2454 137.153 41.417 137.745C41.5885 138.337 41.6743 138.973 41.6743 139.654V140.359C41.6743 141.073 41.6107 141.762 41.4834 142.426C41.3561 143.085 41.1486 143.696 40.8608 144.261C40.5786 144.82 40.2051 145.312 39.7402 145.738C39.2809 146.159 38.7165 146.488 38.0469 146.726C37.3828 146.958 36.6025 147.075 35.7061 147.075H35.5234V145.423ZM50.083 138.019V147H48.0825V138.019H50.083ZM55.9434 138.019L51.9009 143.422H49.6182L49.3525 141.613H51.021L53.4448 138.019H55.9434ZM53.6025 147L50.8965 143.082L52.4736 141.945L56.2339 147H53.6025ZM63.356 138.019V139.612H58.9731V138.019H63.356ZM64.9248 138.019V147H62.9243V138.019H64.9248ZM58.4834 138.019H60.459L60.2183 142.459C60.1851 143.118 60.1187 143.699 60.019 144.203C59.925 144.701 59.7977 145.13 59.6372 145.489C59.4767 145.843 59.2803 146.131 59.0479 146.353C58.8154 146.574 58.5443 146.737 58.2344 146.842C57.9245 146.947 57.5758 147 57.1885 147H56.5659L56.5576 145.356L56.873 145.332C57.0778 145.315 57.2549 145.262 57.4043 145.174C57.5537 145.08 57.681 144.947 57.7861 144.775C57.8968 144.604 57.9854 144.382 58.0518 144.111C58.1237 143.84 58.179 143.519 58.2178 143.148C58.262 142.778 58.2952 142.346 58.3174 141.854L58.4834 138.019ZM72.1133 145.199V140.916C72.1133 140.595 72.0552 140.318 71.939 140.085C71.8228 139.853 71.6457 139.673 71.4077 139.546C71.1753 139.419 70.882 139.355 70.5278 139.355C70.2013 139.355 69.9191 139.41 69.6812 139.521C69.4432 139.632 69.2578 139.781 69.125 139.969C68.9922 140.157 68.9258 140.37 68.9258 140.608H66.9336C66.9336 140.254 67.0194 139.911 67.1909 139.579C67.3625 139.247 67.6115 138.951 67.938 138.691C68.2645 138.431 68.6546 138.226 69.1084 138.077C69.5622 137.927 70.0713 137.853 70.6357 137.853C71.3109 137.853 71.9085 137.966 72.4287 138.193C72.9544 138.42 73.3667 138.763 73.6655 139.222C73.9699 139.676 74.1221 140.246 74.1221 140.932V144.925C74.1221 145.334 74.1497 145.702 74.2051 146.029C74.266 146.35 74.3517 146.629 74.4624 146.867V147H72.4121C72.318 146.784 72.2433 146.51 72.188 146.178C72.1382 145.841 72.1133 145.514 72.1133 145.199ZM72.4038 141.538L72.4204 142.775H70.9844C70.6136 142.775 70.2871 142.811 70.0049 142.883C69.7227 142.949 69.4875 143.049 69.2993 143.182C69.1112 143.314 68.9701 143.475 68.876 143.663C68.7819 143.851 68.7349 144.064 68.7349 144.302C68.7349 144.54 68.7902 144.759 68.9009 144.958C69.0116 145.152 69.172 145.304 69.3823 145.415C69.5981 145.525 69.8582 145.581 70.1626 145.581C70.5721 145.581 70.929 145.498 71.2334 145.332C71.5433 145.16 71.7868 144.952 71.9639 144.709C72.141 144.46 72.235 144.225 72.2461 144.003L72.8936 144.892C72.8271 145.118 72.7137 145.362 72.5532 145.622C72.3927 145.882 72.1825 146.131 71.9224 146.369C71.6678 146.602 71.3607 146.792 71.001 146.942C70.6468 147.091 70.2373 147.166 69.7725 147.166C69.1859 147.166 68.6629 147.05 68.2036 146.817C67.7443 146.579 67.3846 146.261 67.1245 145.863C66.8644 145.459 66.7344 145.002 66.7344 144.493C66.7344 144.017 66.8229 143.597 67 143.231C67.1826 142.861 67.4482 142.551 67.7969 142.302C68.151 142.053 68.5827 141.865 69.0918 141.737C69.6009 141.604 70.182 141.538 70.835 141.538H72.4038ZM79.8828 145.572C80.2093 145.572 80.5026 145.509 80.7627 145.381C81.0283 145.249 81.2414 145.066 81.4019 144.833C81.5679 144.601 81.6592 144.333 81.6758 144.028H83.5601C83.549 144.609 83.3774 145.138 83.0454 145.614C82.7134 146.09 82.2734 146.469 81.7256 146.751C81.1777 147.028 80.5718 147.166 79.9077 147.166C79.2215 147.166 78.6239 147.05 78.1147 146.817C77.6056 146.579 77.1823 146.253 76.8447 145.838C76.5072 145.423 76.2526 144.944 76.0811 144.402C75.915 143.86 75.832 143.278 75.832 142.659V142.368C75.832 141.748 75.915 141.167 76.0811 140.625C76.2526 140.077 76.5072 139.596 76.8447 139.181C77.1823 138.766 77.6056 138.442 78.1147 138.209C78.6239 137.972 79.2188 137.853 79.8994 137.853C80.6188 137.853 81.2497 137.996 81.792 138.284C82.3343 138.566 82.7604 138.962 83.0703 139.471C83.3857 139.975 83.549 140.561 83.5601 141.231H81.6758C81.6592 140.899 81.5762 140.6 81.4268 140.334C81.2829 140.063 81.0781 139.847 80.8125 139.687C80.5524 139.527 80.2397 139.446 79.8745 139.446C79.4705 139.446 79.1357 139.529 78.8701 139.695C78.6045 139.856 78.397 140.077 78.2476 140.359C78.0981 140.636 77.9902 140.949 77.9238 141.297C77.863 141.64 77.8325 141.997 77.8325 142.368V142.659C77.8325 143.029 77.863 143.389 77.9238 143.738C77.9847 144.086 78.0898 144.399 78.2393 144.676C78.3942 144.947 78.6045 145.166 78.8701 145.332C79.1357 145.492 79.4733 145.572 79.8828 145.572ZM88.7646 145.572C89.0911 145.572 89.3844 145.509 89.6445 145.381C89.9102 145.249 90.1232 145.066 90.2837 144.833C90.4497 144.601 90.541 144.333 90.5576 144.028H92.4419C92.4308 144.609 92.2593 145.138 91.9272 145.614C91.5952 146.09 91.1553 146.469 90.6074 146.751C90.0596 147.028 89.4536 147.166 88.7896 147.166C88.1034 147.166 87.5057 147.05 86.9966 146.817C86.4875 146.579 86.0641 146.253 85.7266 145.838C85.389 145.423 85.1344 144.944 84.9629 144.402C84.7969 143.86 84.7139 143.278 84.7139 142.659V142.368C84.7139 141.748 84.7969 141.167 84.9629 140.625C85.1344 140.077 85.389 139.596 85.7266 139.181C86.0641 138.766 86.4875 138.442 86.9966 138.209C87.5057 137.972 88.1006 137.853 88.7812 137.853C89.5007 137.853 90.1315 137.996 90.6738 138.284C91.2161 138.566 91.6423 138.962 91.9521 139.471C92.2676 139.975 92.4308 140.561 92.4419 141.231H90.5576C90.541 140.899 90.458 140.6 90.3086 140.334C90.1647 140.063 89.96 139.847 89.6943 139.687C89.4342 139.527 89.1216 139.446 88.7563 139.446C88.3524 139.446 88.0176 139.529 87.752 139.695C87.4863 139.856 87.2788 140.077 87.1294 140.359C86.98 140.636 86.8721 140.949 86.8057 141.297C86.7448 141.64 86.7144 141.997 86.7144 142.368V142.659C86.7144 143.029 86.7448 143.389 86.8057 143.738C86.8665 144.086 86.9717 144.399 87.1211 144.676C87.276 144.947 87.4863 145.166 87.752 145.332C88.0176 145.492 88.3551 145.572 88.7646 145.572ZM99.041 145.199V140.916C99.041 140.595 98.9829 140.318 98.8667 140.085C98.7505 139.853 98.5734 139.673 98.3354 139.546C98.103 139.419 97.8097 139.355 97.4556 139.355C97.1291 139.355 96.8468 139.41 96.6089 139.521C96.3709 139.632 96.1855 139.781 96.0527 139.969C95.9199 140.157 95.8535 140.37 95.8535 140.608H93.8613C93.8613 140.254 93.9471 139.911 94.1187 139.579C94.2902 139.247 94.5392 138.951 94.8657 138.691C95.1922 138.431 95.5824 138.226 96.0361 138.077C96.4899 137.927 96.999 137.853 97.5635 137.853C98.2386 137.853 98.8363 137.966 99.3564 138.193C99.8822 138.42 100.294 138.763 100.593 139.222C100.898 139.676 101.05 140.246 101.05 140.932V144.925C101.05 145.334 101.077 145.702 101.133 146.029C101.194 146.35 101.279 146.629 101.39 146.867V147H99.3398C99.2458 146.784 99.1711 146.51 99.1157 146.178C99.0659 145.841 99.041 145.514 99.041 145.199ZM99.3315 141.538L99.3481 142.775H97.9121C97.5413 142.775 97.2148 142.811 96.9326 142.883C96.6504 142.949 96.4152 143.049 96.2271 143.182C96.0389 143.314 95.8978 143.475 95.8037 143.663C95.7096 143.851 95.6626 144.064 95.6626 144.302C95.6626 144.54 95.7179 144.759 95.8286 144.958C95.9393 145.152 96.0998 145.304 96.3101 145.415C96.5259 145.525 96.786 145.581 97.0903 145.581C97.4998 145.581 97.8568 145.498 98.1611 145.332C98.471 145.16 98.7145 144.952 98.8916 144.709C99.0687 144.46 99.1628 144.225 99.1738 144.003L99.8213 144.892C99.7549 145.118 99.6414 145.362 99.481 145.622C99.3205 145.882 99.1102 146.131 98.8501 146.369C98.5955 146.602 98.2884 146.792 97.9287 146.942C97.5745 147.091 97.165 147.166 96.7002 147.166C96.1136 147.166 95.5907 147.05 95.1313 146.817C94.672 146.579 94.3123 146.261 94.0522 145.863C93.7922 145.459 93.6621 145.002 93.6621 144.493C93.6621 144.017 93.7507 143.597 93.9277 143.231C94.1104 142.861 94.376 142.551 94.7246 142.302C95.0788 142.053 95.5104 141.865 96.0195 141.737C96.5286 141.604 97.1097 141.538 97.7627 141.538H99.3315Z" fill="white"/>
<path d="M38.4872 66.3267H38.9793C40.6198 66.3267 42.0961 66.1454 43.4085 65.7829C44.7208 65.4204 45.8445 64.8602 46.7795 64.1022C47.7146 63.3278 48.4281 62.3309 48.9203 61.1116C49.4288 59.8758 49.6831 58.3845 49.6831 56.6379V49.1984C49.6831 48.045 49.5846 47.0481 49.3878 46.2077C49.1909 45.3509 48.9039 44.6424 48.5266 44.0822C48.1493 43.5219 47.6982 43.11 47.1732 42.8464C46.6483 42.5662 46.0577 42.4262 45.4016 42.4262C44.7454 42.4262 44.1631 42.6157 43.6545 42.9947C43.1624 43.3572 42.7359 43.8515 42.375 44.4776C42.0305 45.0873 41.768 45.7793 41.5876 46.5538C41.4072 47.3117 41.3169 48.0779 41.3169 48.8524C41.3169 49.7257 41.4072 50.5413 41.5876 51.2993C41.7844 52.0407 42.0633 52.6916 42.4242 53.2518C42.8015 53.7956 43.269 54.224 43.8268 54.5371C44.4009 54.8501 45.0653 55.0067 45.8199 55.0067C46.5745 55.0067 47.2224 54.8749 47.7638 54.6112C48.3215 54.3311 48.7808 53.9686 49.1417 53.5237C49.5026 53.0623 49.7651 52.568 49.9291 52.0407C50.1096 51.5135 50.1916 50.9944 50.1752 50.4836L52.5866 52.3868C52.5866 53.4413 52.3488 54.4794 51.873 55.501C51.3973 56.5226 50.7411 57.4536 49.9045 58.2939C49.0679 59.1178 48.1001 59.7769 47.001 60.2712C45.9183 60.7655 44.77 61.0127 43.5561 61.0127C41.9321 61.0127 40.4639 60.7243 39.1516 60.1476C37.8556 59.5709 36.7484 58.747 35.8297 57.676C34.9111 56.605 34.2057 55.328 33.7136 53.845C33.2379 52.3456 33 50.6814 33 48.8524C33 47.0893 33.3035 45.4333 33.9104 43.8844C34.5174 42.3356 35.3786 40.9762 36.4941 39.8063C37.6096 38.6199 38.9301 37.6889 40.4557 37.0134C41.9813 36.3378 43.6545 36 45.4754 36C47.1978 36 48.8136 36.3295 50.3228 36.9886C51.832 37.6313 53.1608 38.5787 54.3091 39.831C55.4573 41.0833 56.3596 42.6239 57.0157 44.4529C57.6719 46.2819 58 48.3745 58 50.7308V53.5979C58 56.1519 57.6883 58.4587 57.065 60.5184C56.4416 62.578 55.5558 64.3906 54.4075 65.9559C53.2592 67.5048 51.8976 68.8065 50.3228 69.8611C48.7644 70.8991 47.0338 71.6818 45.1309 72.2091C43.2444 72.7364 41.2431 73 39.127 73H38.4872V66.3267Z" fill="white"/>
<defs>
<linearGradient id="paint0_linear_1114_3064" x1="0" y1="0" x2="186.362" y2="181.73" gradientUnits="userSpaceOnUse">
<stop stop-color="#73DEFF"/>
<stop offset="1" stop-color="#03AFE3"/>
</linearGradient>
</defs>
</svg>
