<svg width="190" height="178" viewBox="0 0 190 178" fill="none" xmlns="http://www.w3.org/2000/svg">
<rect width="190" height="178" rx="10" fill="url(#paint0_linear_1114_3075)"/>
<path d="M40.791 114.914V127H38.7158V116.574H33.3452V127H31.27V114.914H40.791ZM42.7168 122.609V122.418C42.7168 121.771 42.8109 121.17 42.999 120.617C43.1872 120.058 43.4583 119.574 43.8125 119.164C44.1722 118.749 44.6094 118.428 45.124 118.201C45.6442 117.969 46.2308 117.853 46.8838 117.853C47.5423 117.853 48.1289 117.969 48.6436 118.201C49.1637 118.428 49.6037 118.749 49.9634 119.164C50.3231 119.574 50.597 120.058 50.7852 120.617C50.9733 121.17 51.0674 121.771 51.0674 122.418V122.609C51.0674 123.256 50.9733 123.857 50.7852 124.41C50.597 124.964 50.3231 125.448 49.9634 125.863C49.6037 126.272 49.1665 126.593 48.6519 126.826C48.1372 127.053 47.5534 127.166 46.9004 127.166C46.2419 127.166 45.6525 127.053 45.1323 126.826C44.6177 126.593 44.1805 126.272 43.8208 125.863C43.4611 125.448 43.1872 124.964 42.999 124.41C42.8109 123.857 42.7168 123.256 42.7168 122.609ZM44.7173 122.418V122.609C44.7173 123.013 44.7588 123.395 44.8418 123.754C44.9248 124.114 45.0549 124.43 45.2319 124.701C45.409 124.972 45.6359 125.185 45.9126 125.34C46.1893 125.495 46.5186 125.572 46.9004 125.572C47.2712 125.572 47.5921 125.495 47.8633 125.34C48.14 125.185 48.3669 124.972 48.5439 124.701C48.721 124.43 48.8511 124.114 48.9341 123.754C49.0226 123.395 49.0669 123.013 49.0669 122.609V122.418C49.0669 122.02 49.0226 121.643 48.9341 121.289C48.8511 120.929 48.7183 120.611 48.5356 120.334C48.3586 120.058 48.1317 119.842 47.855 119.687C47.5838 119.527 47.2601 119.446 46.8838 119.446C46.5075 119.446 46.181 119.527 45.9043 119.687C45.6331 119.842 45.409 120.058 45.2319 120.334C45.0549 120.611 44.9248 120.929 44.8418 121.289C44.7588 121.643 44.7173 122.02 44.7173 122.418ZM56.4131 125.572C56.7396 125.572 57.0329 125.509 57.293 125.381C57.5586 125.249 57.7716 125.066 57.9321 124.833C58.0981 124.601 58.1895 124.333 58.2061 124.028H60.0903C60.0793 124.609 59.9077 125.138 59.5757 125.614C59.2437 126.09 58.8037 126.469 58.2559 126.751C57.708 127.028 57.1021 127.166 56.438 127.166C55.7518 127.166 55.1541 127.05 54.645 126.817C54.1359 126.579 53.7126 126.253 53.375 125.838C53.0374 125.423 52.7829 124.944 52.6113 124.402C52.4453 123.86 52.3623 123.278 52.3623 122.659V122.368C52.3623 121.748 52.4453 121.167 52.6113 120.625C52.7829 120.077 53.0374 119.596 53.375 119.181C53.7126 118.766 54.1359 118.442 54.645 118.209C55.1541 117.972 55.749 117.853 56.4297 117.853C57.1491 117.853 57.7799 117.996 58.3223 118.284C58.8646 118.566 59.2907 118.962 59.6006 119.471C59.916 119.975 60.0793 120.561 60.0903 121.231H58.2061C58.1895 120.899 58.1064 120.6 57.957 120.334C57.8132 120.063 57.6084 119.847 57.3428 119.687C57.0827 119.527 56.77 119.446 56.4048 119.446C56.0008 119.446 55.666 119.529 55.4004 119.695C55.1348 119.856 54.9272 120.077 54.7778 120.359C54.6284 120.636 54.5205 120.949 54.4541 121.297C54.3932 121.64 54.3628 121.997 54.3628 122.368V122.659C54.3628 123.029 54.3932 123.389 54.4541 123.738C54.515 124.086 54.6201 124.399 54.7695 124.676C54.9245 124.947 55.1348 125.166 55.4004 125.332C55.666 125.492 56.0036 125.572 56.4131 125.572ZM65.793 118.019V127H63.7842V118.019H65.793ZM68.7397 118.019V119.596H60.8872V118.019H68.7397ZM72.7822 126.021L75.2227 118.019H77.3643L73.7617 128.37C73.6787 128.591 73.5708 128.832 73.438 129.092C73.3052 129.352 73.1309 129.598 72.915 129.831C72.7048 130.069 72.4419 130.259 72.1265 130.403C71.811 130.553 71.4292 130.627 70.981 130.627C70.8039 130.627 70.6323 130.611 70.4663 130.578C70.3058 130.55 70.1536 130.52 70.0098 130.486L70.0015 128.959C70.0568 128.965 70.1232 128.97 70.2007 128.976C70.2837 128.981 70.3501 128.984 70.3999 128.984C70.7319 128.984 71.0086 128.942 71.23 128.859C71.4513 128.782 71.6312 128.655 71.7695 128.478C71.9134 128.3 72.0352 128.062 72.1348 127.764L72.7822 126.021ZM71.4043 118.019L73.5376 124.742L73.8945 126.851L72.5083 127.208L69.2461 118.019H71.4043ZM84.5361 118.019V119.612H80.1035V118.019H84.5361ZM80.5767 118.019V127H78.5762V118.019H80.5767ZM86.105 118.019V127H84.0962V118.019H86.105ZM93.2852 125.199V120.916C93.2852 120.595 93.2271 120.318 93.1108 120.085C92.9946 119.853 92.8175 119.673 92.5796 119.546C92.3472 119.419 92.0539 119.355 91.6997 119.355C91.3732 119.355 91.091 119.41 90.853 119.521C90.6151 119.632 90.4297 119.781 90.2969 119.969C90.1641 120.157 90.0977 120.37 90.0977 120.608H88.1055C88.1055 120.254 88.1912 119.911 88.3628 119.579C88.5343 119.247 88.7834 118.951 89.1099 118.691C89.4364 118.431 89.8265 118.226 90.2803 118.077C90.734 117.927 91.2432 117.853 91.8076 117.853C92.4827 117.853 93.0804 117.966 93.6006 118.193C94.1263 118.42 94.5386 118.763 94.8374 119.222C95.1418 119.676 95.2939 120.246 95.2939 120.932V124.925C95.2939 125.334 95.3216 125.702 95.377 126.029C95.4378 126.35 95.5236 126.629 95.6343 126.867V127H93.584C93.4899 126.784 93.4152 126.51 93.3599 126.178C93.3101 125.841 93.2852 125.514 93.2852 125.199ZM93.5757 121.538L93.5923 122.775H92.1562C91.7855 122.775 91.459 122.811 91.1768 122.883C90.8945 122.949 90.6593 123.049 90.4712 123.182C90.283 123.314 90.1419 123.475 90.0479 123.663C89.9538 123.851 89.9067 124.064 89.9067 124.302C89.9067 124.54 89.9621 124.759 90.0728 124.958C90.1834 125.152 90.3439 125.304 90.5542 125.415C90.77 125.525 91.0301 125.581 91.3345 125.581C91.744 125.581 92.1009 125.498 92.4053 125.332C92.7152 125.16 92.9587 124.952 93.1357 124.709C93.3128 124.46 93.4069 124.225 93.418 124.003L94.0654 124.892C93.999 125.118 93.8856 125.362 93.7251 125.622C93.5646 125.882 93.3543 126.131 93.0942 126.369C92.8397 126.602 92.5326 126.792 92.1729 126.942C91.8187 127.091 91.4092 127.166 90.9443 127.166C90.3577 127.166 89.8348 127.05 89.3755 126.817C88.9162 126.579 88.5565 126.261 88.2964 125.863C88.0363 125.459 87.9062 125.002 87.9062 124.493C87.9062 124.017 87.9948 123.597 88.1719 123.231C88.3545 122.861 88.6201 122.551 88.9688 122.302C89.3229 122.053 89.7546 121.865 90.2637 121.737C90.7728 121.604 91.3538 121.538 92.0068 121.538H93.5757ZM102.673 121.646V123.24H97.8589V121.646H102.673ZM99.5688 118.019V127H97.5684V118.019H99.5688ZM101.196 122.609V122.418C101.196 121.771 101.29 121.17 101.478 120.617C101.666 120.058 101.94 119.574 102.3 119.164C102.66 118.749 103.097 118.428 103.611 118.201C104.126 117.969 104.71 117.853 105.363 117.853C106.027 117.853 106.616 117.969 107.131 118.201C107.651 118.428 108.091 118.749 108.451 119.164C108.81 119.574 109.084 120.058 109.272 120.617C109.461 121.17 109.555 121.771 109.555 122.418V122.609C109.555 123.256 109.461 123.857 109.272 124.41C109.084 124.964 108.81 125.448 108.451 125.863C108.097 126.272 107.659 126.593 107.139 126.826C106.625 127.053 106.038 127.166 105.379 127.166C104.721 127.166 104.134 127.053 103.62 126.826C103.105 126.593 102.665 126.272 102.3 125.863C101.94 125.448 101.666 124.964 101.478 124.41C101.29 123.857 101.196 123.256 101.196 122.609ZM103.205 122.418V122.609C103.205 123.013 103.246 123.395 103.329 123.754C103.412 124.114 103.542 124.43 103.719 124.701C103.896 124.972 104.123 125.185 104.4 125.34C104.677 125.495 105.003 125.572 105.379 125.572C105.756 125.572 106.079 125.495 106.351 125.34C106.627 125.185 106.854 124.972 107.031 124.701C107.208 124.43 107.338 124.114 107.421 123.754C107.51 123.395 107.554 123.013 107.554 122.609V122.418C107.554 122.02 107.51 121.643 107.421 121.289C107.338 120.929 107.208 120.611 107.031 120.334C106.854 120.058 106.627 119.842 106.351 119.687C106.074 119.527 105.745 119.446 105.363 119.446C104.992 119.446 104.668 119.527 104.392 119.687C104.12 119.842 103.896 120.058 103.719 120.334C103.542 120.611 103.412 120.929 103.329 121.289C103.246 121.643 103.205 122.02 103.205 122.418ZM124.488 125.415L124.33 129.665H122.496V127H121.417V125.415H124.488ZM111.223 118.019H113.224V125.406H116.079V118.019H118.088V125.406H120.935V118.019H122.936V127H111.223V118.019ZM128.041 124.078L131.568 118.019H133.569V127H131.568V120.932L128.041 127H126.04V118.019H128.041V124.078ZM141.023 124.576L143.696 118.019H145.431L141.704 127H140.342L136.624 118.019H138.358L141.023 124.576ZM137.844 118.019V127H135.843V118.019H137.844ZM144.202 127V118.019H146.211V127H144.202ZM35.3955 143.157H32.5234L32.5068 141.746H34.8643C35.2516 141.746 35.5698 141.707 35.8188 141.629C36.0734 141.552 36.2616 141.436 36.3833 141.281C36.505 141.12 36.5659 140.927 36.5659 140.7C36.5659 140.512 36.5299 140.348 36.458 140.21C36.3861 140.066 36.2754 139.95 36.126 139.861C35.9821 139.767 35.7995 139.701 35.5781 139.662C35.3623 139.618 35.1105 139.596 34.8228 139.596H33.1875V147H31.187V138.019H34.8228C35.3983 138.019 35.9157 138.068 36.375 138.168C36.8398 138.268 37.2355 138.42 37.562 138.625C37.8885 138.829 38.1375 139.089 38.3091 139.405C38.4862 139.715 38.5747 140.08 38.5747 140.5C38.5747 140.777 38.5138 141.037 38.3921 141.281C38.2759 141.524 38.1016 141.74 37.8691 141.928C37.6367 142.116 37.3517 142.271 37.0142 142.393C36.6766 142.509 36.2892 142.581 35.8521 142.609L35.3955 143.157ZM35.3955 147H31.9424L32.7393 145.423H35.3955C35.7497 145.423 36.043 145.379 36.2754 145.29C36.5078 145.201 36.6794 145.074 36.79 144.908C36.9062 144.737 36.9644 144.535 36.9644 144.302C36.9644 144.064 36.909 143.86 36.7983 143.688C36.6877 143.516 36.5161 143.386 36.2837 143.298C36.0568 143.204 35.7607 143.157 35.3955 143.157H33.1128L33.1294 141.746H35.8438L36.4165 142.293C36.9865 142.332 37.4596 142.454 37.8359 142.659C38.2122 142.863 38.4945 143.121 38.6826 143.431C38.8708 143.741 38.9648 144.078 38.9648 144.443C38.9648 144.864 38.8846 145.235 38.7241 145.556C38.5692 145.877 38.3368 146.145 38.0269 146.361C37.7225 146.571 37.349 146.732 36.9062 146.842C36.4635 146.947 35.96 147 35.3955 147ZM50.2622 144.576L52.9351 138.019H54.6699L50.9429 147H49.5815L45.8628 138.019H47.5977L50.2622 144.576ZM47.083 138.019V147H45.0825V138.019H47.083ZM53.4414 147V138.019H55.4502V147H53.4414ZM62.7549 145.199V140.916C62.7549 140.595 62.6968 140.318 62.5806 140.085C62.4644 139.853 62.2873 139.673 62.0493 139.546C61.8169 139.419 61.5236 139.355 61.1694 139.355C60.8429 139.355 60.5607 139.41 60.3228 139.521C60.0848 139.632 59.8994 139.781 59.7666 139.969C59.6338 140.157 59.5674 140.37 59.5674 140.608H57.5752C57.5752 140.254 57.661 139.911 57.8325 139.579C58.0041 139.247 58.2531 138.951 58.5796 138.691C58.9061 138.431 59.2962 138.226 59.75 138.077C60.2038 137.927 60.7129 137.853 61.2773 137.853C61.9525 137.853 62.5501 137.966 63.0703 138.193C63.596 138.42 64.0083 138.763 64.3071 139.222C64.6115 139.676 64.7637 140.246 64.7637 140.932V144.925C64.7637 145.334 64.7913 145.702 64.8467 146.029C64.9076 146.35 64.9933 146.629 65.104 146.867V147H63.0537C62.9596 146.784 62.8849 146.51 62.8296 146.178C62.7798 145.841 62.7549 145.514 62.7549 145.199ZM63.0454 141.538L63.062 142.775H61.626C61.2552 142.775 60.9287 142.811 60.6465 142.883C60.3643 142.949 60.1291 143.049 59.9409 143.182C59.7528 143.314 59.6117 143.475 59.5176 143.663C59.4235 143.851 59.3765 144.064 59.3765 144.302C59.3765 144.54 59.4318 144.759 59.5425 144.958C59.6532 145.152 59.8136 145.304 60.0239 145.415C60.2397 145.525 60.4998 145.581 60.8042 145.581C61.2137 145.581 61.5706 145.498 61.875 145.332C62.1849 145.16 62.4284 144.952 62.6055 144.709C62.7826 144.46 62.8766 144.225 62.8877 144.003L63.5352 144.892C63.4688 145.118 63.3553 145.362 63.1948 145.622C63.0343 145.882 62.8241 146.131 62.564 146.369C62.3094 146.602 62.0023 146.792 61.6426 146.942C61.2884 147.091 60.8789 147.166 60.4141 147.166C59.8275 147.166 59.3045 147.05 58.8452 146.817C58.3859 146.579 58.0262 146.261 57.7661 145.863C57.506 145.459 57.376 145.002 57.376 144.493C57.376 144.017 57.4645 143.597 57.6416 143.231C57.8242 142.861 58.0898 142.551 58.4385 142.302C58.7926 142.053 59.2243 141.865 59.7334 141.737C60.2425 141.604 60.8236 141.538 61.4766 141.538H63.0454ZM72.832 138.019V139.612H68.9141V147H66.9136V138.019H72.832ZM76.061 144.078L79.5889 138.019H81.5894V147H79.5889V140.932L76.061 147H74.0605V138.019H76.061V144.078ZM87.375 145.572C87.7015 145.572 87.9948 145.509 88.2549 145.381C88.5205 145.249 88.7336 145.066 88.894 144.833C89.0601 144.601 89.1514 144.333 89.168 144.028H91.0522C91.0412 144.609 90.8696 145.138 90.5376 145.614C90.2056 146.09 89.7656 146.469 89.2178 146.751C88.6699 147.028 88.064 147.166 87.3999 147.166C86.7137 147.166 86.116 147.05 85.6069 146.817C85.0978 146.579 84.6745 146.253 84.3369 145.838C83.9993 145.423 83.7448 144.944 83.5732 144.402C83.4072 143.86 83.3242 143.278 83.3242 142.659V142.368C83.3242 141.748 83.4072 141.167 83.5732 140.625C83.7448 140.077 83.9993 139.596 84.3369 139.181C84.6745 138.766 85.0978 138.442 85.6069 138.209C86.116 137.972 86.7109 137.853 87.3916 137.853C88.111 137.853 88.7419 137.996 89.2842 138.284C89.8265 138.566 90.2526 138.962 90.5625 139.471C90.8779 139.975 91.0412 140.561 91.0522 141.231H89.168C89.1514 140.899 89.0684 140.6 88.9189 140.334C88.7751 140.063 88.5703 139.847 88.3047 139.687C88.0446 139.527 87.7319 139.446 87.3667 139.446C86.9627 139.446 86.6279 139.529 86.3623 139.695C86.0967 139.856 85.8892 140.077 85.7397 140.359C85.5903 140.636 85.4824 140.949 85.416 141.297C85.3551 141.64 85.3247 141.997 85.3247 142.368V142.659C85.3247 143.029 85.3551 143.389 85.416 143.738C85.4769 144.086 85.582 144.399 85.7314 144.676C85.8864 144.947 86.0967 145.166 86.3623 145.332C86.6279 145.492 86.9655 145.572 87.375 145.572ZM96.7549 138.019V147H94.7461V138.019H96.7549ZM99.7017 138.019V139.596H91.8491V138.019H99.7017ZM103.047 139.745V150.453H101.046V138.019H102.889L103.047 139.745ZM108.899 142.426V142.601C108.899 143.254 108.821 143.86 108.667 144.418C108.517 144.972 108.293 145.456 107.994 145.871C107.701 146.281 107.338 146.599 106.907 146.826C106.475 147.053 105.977 147.166 105.413 147.166C104.854 147.166 104.364 147.064 103.943 146.859C103.528 146.649 103.177 146.353 102.889 145.971C102.601 145.589 102.369 145.141 102.192 144.626C102.02 144.106 101.899 143.536 101.827 142.916V142.244C101.899 141.585 102.02 140.987 102.192 140.451C102.369 139.914 102.601 139.452 102.889 139.064C103.177 138.677 103.528 138.378 103.943 138.168C104.358 137.958 104.843 137.853 105.396 137.853C105.96 137.853 106.461 137.963 106.898 138.185C107.336 138.4 107.704 138.71 108.002 139.114C108.301 139.513 108.525 139.994 108.675 140.559C108.824 141.118 108.899 141.74 108.899 142.426ZM106.898 142.601V142.426C106.898 142.011 106.86 141.627 106.782 141.272C106.705 140.913 106.583 140.597 106.417 140.326C106.251 140.055 106.038 139.845 105.778 139.695C105.523 139.54 105.216 139.463 104.856 139.463C104.502 139.463 104.198 139.524 103.943 139.646C103.689 139.762 103.476 139.925 103.304 140.135C103.133 140.346 103 140.592 102.906 140.874C102.812 141.151 102.745 141.452 102.707 141.779V143.389C102.773 143.788 102.886 144.153 103.047 144.485C103.207 144.817 103.434 145.083 103.728 145.282C104.026 145.475 104.408 145.572 104.873 145.572C105.233 145.572 105.54 145.495 105.794 145.34C106.049 145.185 106.257 144.972 106.417 144.701C106.583 144.424 106.705 144.106 106.782 143.746C106.86 143.386 106.898 143.005 106.898 142.601ZM115.664 145.199V140.916C115.664 140.595 115.606 140.318 115.49 140.085C115.374 139.853 115.196 139.673 114.958 139.546C114.726 139.419 114.433 139.355 114.079 139.355C113.752 139.355 113.47 139.41 113.232 139.521C112.994 139.632 112.809 139.781 112.676 139.969C112.543 140.157 112.477 140.37 112.477 140.608H110.484C110.484 140.254 110.57 139.911 110.742 139.579C110.913 139.247 111.162 138.951 111.489 138.691C111.815 138.431 112.205 138.226 112.659 138.077C113.113 137.927 113.622 137.853 114.187 137.853C114.862 137.853 115.459 137.966 115.979 138.193C116.505 138.42 116.917 138.763 117.216 139.222C117.521 139.676 117.673 140.246 117.673 140.932V144.925C117.673 145.334 117.701 145.702 117.756 146.029C117.817 146.35 117.903 146.629 118.013 146.867V147H115.963C115.869 146.784 115.794 146.51 115.739 146.178C115.689 145.841 115.664 145.514 115.664 145.199ZM115.955 141.538L115.971 142.775H114.535C114.164 142.775 113.838 142.811 113.556 142.883C113.273 142.949 113.038 143.049 112.85 143.182C112.662 143.314 112.521 143.475 112.427 143.663C112.333 143.851 112.286 144.064 112.286 144.302C112.286 144.54 112.341 144.759 112.452 144.958C112.562 145.152 112.723 145.304 112.933 145.415C113.149 145.525 113.409 145.581 113.713 145.581C114.123 145.581 114.48 145.498 114.784 145.332C115.094 145.16 115.338 144.952 115.515 144.709C115.692 144.46 115.786 144.225 115.797 144.003L116.444 144.892C116.378 145.118 116.264 145.362 116.104 145.622C115.944 145.882 115.733 146.131 115.473 146.369C115.219 146.602 114.911 146.792 114.552 146.942C114.198 147.091 113.788 147.166 113.323 147.166C112.737 147.166 112.214 147.05 111.754 146.817C111.295 146.579 110.935 146.261 110.675 145.863C110.415 145.459 110.285 145.002 110.285 144.493C110.285 144.017 110.374 143.597 110.551 143.231C110.733 142.861 110.999 142.551 111.348 142.302C111.702 142.053 112.133 141.865 112.643 141.737C113.152 141.604 113.733 141.538 114.386 141.538H115.955ZM123.799 138.019V147H121.79V138.019H123.799ZM126.746 138.019V139.596H118.893V138.019H126.746ZM130.788 146.021L133.229 138.019H135.37L131.768 148.37C131.685 148.591 131.577 148.832 131.444 149.092C131.311 149.352 131.137 149.598 130.921 149.831C130.711 150.069 130.448 150.259 130.132 150.403C129.817 150.553 129.435 150.627 128.987 150.627C128.81 150.627 128.638 150.611 128.472 150.578C128.312 150.55 128.16 150.52 128.016 150.486L128.007 148.959C128.063 148.965 128.129 148.97 128.207 148.976C128.29 148.981 128.356 148.984 128.406 148.984C128.738 148.984 129.014 148.942 129.236 148.859C129.457 148.782 129.637 148.655 129.775 148.478C129.919 148.3 130.041 148.062 130.141 147.764L130.788 146.021ZM129.41 138.019L131.543 144.742L131.9 146.851L130.514 147.208L127.252 138.019H129.41ZM138.524 139.745V150.453H136.524V138.019H138.367L138.524 139.745ZM144.376 142.426V142.601C144.376 143.254 144.299 143.86 144.144 144.418C143.995 144.972 143.771 145.456 143.472 145.871C143.178 146.281 142.816 146.599 142.384 146.826C141.953 147.053 141.455 147.166 140.89 147.166C140.331 147.166 139.841 147.064 139.421 146.859C139.006 146.649 138.654 146.353 138.367 145.971C138.079 145.589 137.847 145.141 137.669 144.626C137.498 144.106 137.376 143.536 137.304 142.916V142.244C137.376 141.585 137.498 140.987 137.669 140.451C137.847 139.914 138.079 139.452 138.367 139.064C138.654 138.677 139.006 138.378 139.421 138.168C139.836 137.958 140.32 137.853 140.874 137.853C141.438 137.853 141.939 137.963 142.376 138.185C142.813 138.4 143.181 138.71 143.48 139.114C143.779 139.513 144.003 139.994 144.152 140.559C144.302 141.118 144.376 141.74 144.376 142.426ZM142.376 142.601V142.426C142.376 142.011 142.337 141.627 142.26 141.272C142.182 140.913 142.061 140.597 141.895 140.326C141.729 140.055 141.515 139.845 141.255 139.695C141.001 139.54 140.694 139.463 140.334 139.463C139.98 139.463 139.675 139.524 139.421 139.646C139.166 139.762 138.953 139.925 138.782 140.135C138.61 140.346 138.477 140.592 138.383 140.874C138.289 141.151 138.223 141.452 138.184 141.779V143.389C138.25 143.788 138.364 144.153 138.524 144.485C138.685 144.817 138.912 145.083 139.205 145.282C139.504 145.475 139.886 145.572 140.351 145.572C140.71 145.572 141.017 145.495 141.272 145.34C141.527 145.185 141.734 144.972 141.895 144.701C142.061 144.424 142.182 144.106 142.26 143.746C142.337 143.386 142.376 143.005 142.376 142.601ZM148.585 146.021L151.025 138.019H153.167L149.564 148.37C149.481 148.591 149.374 148.832 149.241 149.092C149.108 149.352 148.934 149.598 148.718 149.831C148.507 150.069 148.245 150.259 147.929 150.403C147.614 150.553 147.232 150.627 146.784 150.627C146.607 150.627 146.435 150.611 146.269 150.578C146.109 150.55 145.956 150.52 145.812 150.486L145.804 148.959C145.86 148.965 145.926 148.97 146.003 148.976C146.086 148.981 146.153 148.984 146.203 148.984C146.535 148.984 146.811 148.942 147.033 148.859C147.254 148.782 147.434 148.655 147.572 148.478C147.716 148.3 147.838 148.062 147.938 147.764L148.585 146.021ZM147.207 138.019L149.34 144.742L149.697 146.851L148.311 147.208L145.049 138.019H147.207Z" fill="white"/>
<path d="M85 47.6478V70.1404C85 70.6582 84.7937 71.1548 84.4264 71.521C84.0592 71.8871 83.561 72.0928 83.0417 72.0928C82.5223 72.0928 82.0242 71.8871 81.6569 71.521C81.2896 71.1548 81.0833 70.6582 81.0833 70.1404V54.0363L66.5916 60.9403C65.0636 61.8395 63.3192 62.3078 61.545 62.2953C59.6842 62.2982 57.8573 61.7996 56.2574 60.8524L41.8049 53.9934C40.6688 53.3843 39.7169 52.4832 39.048 51.3836C38.379 50.284 38.0174 49.026 38.0006 47.74C37.9838 46.4541 38.3125 45.1871 38.9525 44.0705C39.5925 42.9539 40.5206 42.0285 41.6404 41.3901C41.6933 41.3589 41.75 41.3296 41.8049 41.3022L56.4082 34.3553C57.9848 33.4526 59.7741 32.9849 61.5922 33.0004C63.4102 33.0158 65.1912 33.5138 66.7522 34.4432L81.1949 41.3022C82.3346 41.9309 83.2869 42.8492 83.9553 43.9637C84.6236 45.0783 84.9841 46.3494 85 47.6478ZM61.543 66.1963C59.0375 66.2019 56.5749 65.5472 54.4048 64.2985L45.8332 60.2198V65.4915C45.8344 67.5758 46.5037 69.6052 47.7434 71.2835C48.9832 72.9617 50.7285 74.201 52.7246 74.8204C55.5766 75.6369 58.5329 76.0335 61.4999 75.9978C64.4673 76.0309 67.4236 75.6317 70.2752 74.8126C72.2714 74.1932 74.0167 72.9539 75.2564 71.2757C76.4962 69.5974 77.1655 67.568 77.1666 65.4837V60.2296L68.4344 64.3883C66.3383 65.589 63.9604 66.2142 61.543 66.2002V66.1963Z" fill="white"/>
<defs>
<linearGradient id="paint0_linear_1114_3075" x1="0" y1="0" x2="185.33" y2="182.737" gradientUnits="userSpaceOnUse">
<stop stop-color="#50ECF1"/>
<stop offset="1" stop-color="#17CAD0"/>
</linearGradient>
</defs>
</svg>
