<svg width="190" height="178" viewBox="0 0 190 178" fill="none" xmlns="http://www.w3.org/2000/svg">
<rect width="190" height="178" rx="10" fill="url(#paint0_linear_1114_3070)"/>
<path d="M61 76H47C45.8475 75.9953 44.7285 75.6115 43.8158 74.9078C42.9031 74.2041 42.2472 73.2197 41.9495 72.1063C42.4507 69.2744 43.9331 66.7096 46.1367 64.8617C48.3402 63.0139 51.1242 62.0011 54 62.0011C56.8758 62.0011 59.6598 63.0139 61.8633 64.8617C64.0669 66.7096 65.5493 69.2744 66.0505 72.1063C65.7528 73.2197 65.097 74.2041 64.1842 74.9078C63.2715 75.6115 62.1525 75.9953 61 76ZM38.25 70.75V57.492C36.6914 58.1722 35.3648 59.2919 34.4324 60.7141C33.5 62.1363 33.0022 63.7994 33 65.5V67.25C33.0027 69.2414 33.6847 71.1724 34.9332 72.7238C36.1818 74.2753 37.9222 75.3544 39.867 75.783C38.8171 74.3146 38.2518 72.5551 38.25 70.75ZM69.75 57.492V70.75C69.7482 72.5551 69.1829 74.3146 68.133 75.783C70.0778 75.3544 71.8182 74.2753 73.0668 72.7238C74.3153 71.1724 74.9973 69.2414 75 67.25V65.5C74.9978 63.7994 74.5 62.1363 73.5676 60.7141C72.6352 59.2919 71.3086 58.1722 69.75 57.492ZM66.25 53.25V64.373C64.7777 62.5398 62.9128 61.0604 60.7926 60.0439C58.6725 59.0273 56.3512 58.4996 54 58.4996C51.6488 58.4996 49.3275 59.0273 47.2074 60.0439C45.0872 61.0604 43.2223 62.5398 41.75 64.373V53.25C41.7512 51.2776 42.2293 49.3347 43.1434 47.5869C44.0575 45.8391 45.3806 44.3381 47 43.212V41C47 39.1435 47.7375 37.363 49.0503 36.0503C50.363 34.7375 52.1435 34 54 34C55.8565 34 57.637 34.7375 58.9497 36.0503C60.2625 37.363 61 39.1435 61 41V43.212C62.6194 44.3381 63.9425 45.8391 64.8566 47.5869C65.7707 49.3347 66.2488 51.2776 66.25 53.25ZM50.5 41.525C52.7826 40.8367 55.2174 40.8367 57.5 41.525V41C57.5 40.0717 57.1313 39.1815 56.4749 38.5251C55.8185 37.8687 54.9283 37.5 54 37.5C53.0717 37.5 52.1815 37.8687 51.5251 38.5251C50.8687 39.1815 50.5 40.0717 50.5 41V41.525ZM59.25 51.5C59.25 51.0359 59.0656 50.5908 58.7374 50.2626C58.4092 49.9344 57.9641 49.75 57.5 49.75H50.5C50.0359 49.75 49.5908 49.9344 49.2626 50.2626C48.9344 50.5908 48.75 51.0359 48.75 51.5C48.75 51.9641 48.9344 52.4092 49.2626 52.7374C49.5908 53.0656 50.0359 53.25 50.5 53.25H57.5C57.9641 53.25 58.4092 53.0656 58.7374 52.7374C59.0656 52.4092 59.25 51.9641 59.25 51.5Z" fill="white"/>
<path d="M42.791 114.914V127H40.7158V116.574H35.3452V127H33.27V114.914H42.791ZM44.7168 122.609V122.418C44.7168 121.771 44.8109 121.17 44.999 120.617C45.1872 120.058 45.4583 119.574 45.8125 119.164C46.1722 118.749 46.6094 118.428 47.124 118.201C47.6442 117.969 48.2308 117.853 48.8838 117.853C49.5423 117.853 50.1289 117.969 50.6436 118.201C51.1637 118.428 51.6037 118.749 51.9634 119.164C52.3231 119.574 52.597 120.058 52.7852 120.617C52.9733 121.17 53.0674 121.771 53.0674 122.418V122.609C53.0674 123.256 52.9733 123.857 52.7852 124.41C52.597 124.964 52.3231 125.448 51.9634 125.863C51.6037 126.272 51.1665 126.593 50.6519 126.826C50.1372 127.053 49.5534 127.166 48.9004 127.166C48.2419 127.166 47.6525 127.053 47.1323 126.826C46.6177 126.593 46.1805 126.272 45.8208 125.863C45.4611 125.448 45.1872 124.964 44.999 124.41C44.8109 123.857 44.7168 123.256 44.7168 122.609ZM46.7173 122.418V122.609C46.7173 123.013 46.7588 123.395 46.8418 123.754C46.9248 124.114 47.0549 124.43 47.2319 124.701C47.409 124.972 47.6359 125.185 47.9126 125.34C48.1893 125.495 48.5186 125.572 48.9004 125.572C49.2712 125.572 49.5921 125.495 49.8633 125.34C50.14 125.185 50.3669 124.972 50.5439 124.701C50.721 124.43 50.8511 124.114 50.9341 123.754C51.0226 123.395 51.0669 123.013 51.0669 122.609V122.418C51.0669 122.02 51.0226 121.643 50.9341 121.289C50.8511 120.929 50.7183 120.611 50.5356 120.334C50.3586 120.058 50.1317 119.842 49.855 119.687C49.5838 119.527 49.2601 119.446 48.8838 119.446C48.5075 119.446 48.181 119.527 47.9043 119.687C47.6331 119.842 47.409 120.058 47.2319 120.334C47.0549 120.611 46.9248 120.929 46.8418 121.289C46.7588 121.643 46.7173 122.02 46.7173 122.418ZM58.4131 125.572C58.7396 125.572 59.0329 125.509 59.293 125.381C59.5586 125.249 59.7716 125.066 59.9321 124.833C60.0981 124.601 60.1895 124.333 60.2061 124.028H62.0903C62.0793 124.609 61.9077 125.138 61.5757 125.614C61.2437 126.09 60.8037 126.469 60.2559 126.751C59.708 127.028 59.1021 127.166 58.438 127.166C57.7518 127.166 57.1541 127.05 56.645 126.817C56.1359 126.579 55.7126 126.253 55.375 125.838C55.0374 125.423 54.7829 124.944 54.6113 124.402C54.4453 123.86 54.3623 123.278 54.3623 122.659V122.368C54.3623 121.748 54.4453 121.167 54.6113 120.625C54.7829 120.077 55.0374 119.596 55.375 119.181C55.7126 118.766 56.1359 118.442 56.645 118.209C57.1541 117.972 57.749 117.853 58.4297 117.853C59.1491 117.853 59.7799 117.996 60.3223 118.284C60.8646 118.566 61.2907 118.962 61.6006 119.471C61.916 119.975 62.0793 120.561 62.0903 121.231H60.2061C60.1895 120.899 60.1064 120.6 59.957 120.334C59.8132 120.063 59.6084 119.847 59.3428 119.687C59.0827 119.527 58.77 119.446 58.4048 119.446C58.0008 119.446 57.666 119.529 57.4004 119.695C57.1348 119.856 56.9272 120.077 56.7778 120.359C56.6284 120.636 56.5205 120.949 56.4541 121.297C56.3932 121.64 56.3628 121.997 56.3628 122.368V122.659C56.3628 123.029 56.3932 123.389 56.4541 123.738C56.515 124.086 56.6201 124.399 56.7695 124.676C56.9245 124.947 57.1348 125.166 57.4004 125.332C57.666 125.492 58.0036 125.572 58.4131 125.572ZM67.793 118.019V127H65.7842V118.019H67.793ZM70.7397 118.019V119.596H62.8872V118.019H70.7397ZM74.7822 126.021L77.2227 118.019H79.3643L75.7617 128.37C75.6787 128.591 75.5708 128.832 75.438 129.092C75.3052 129.352 75.1309 129.598 74.915 129.831C74.7048 130.069 74.4419 130.259 74.1265 130.403C73.811 130.553 73.4292 130.627 72.981 130.627C72.8039 130.627 72.6323 130.611 72.4663 130.578C72.3058 130.55 72.1536 130.52 72.0098 130.486L72.0015 128.959C72.0568 128.965 72.1232 128.97 72.2007 128.976C72.2837 128.981 72.3501 128.984 72.3999 128.984C72.7319 128.984 73.0086 128.942 73.23 128.859C73.4513 128.782 73.6312 128.655 73.7695 128.478C73.9134 128.3 74.0352 128.062 74.1348 127.764L74.7822 126.021ZM73.4043 118.019L75.5376 124.742L75.8945 126.851L74.5083 127.208L71.2461 118.019H73.4043ZM86.5361 118.019V119.612H82.1035V118.019H86.5361ZM82.5767 118.019V127H80.5762V118.019H82.5767ZM88.105 118.019V127H86.0962V118.019H88.105ZM95.2852 125.199V120.916C95.2852 120.595 95.2271 120.318 95.1108 120.085C94.9946 119.853 94.8175 119.673 94.5796 119.546C94.3472 119.419 94.0539 119.355 93.6997 119.355C93.3732 119.355 93.091 119.41 92.853 119.521C92.6151 119.632 92.4297 119.781 92.2969 119.969C92.1641 120.157 92.0977 120.37 92.0977 120.608H90.1055C90.1055 120.254 90.1912 119.911 90.3628 119.579C90.5343 119.247 90.7834 118.951 91.1099 118.691C91.4364 118.431 91.8265 118.226 92.2803 118.077C92.734 117.927 93.2432 117.853 93.8076 117.853C94.4827 117.853 95.0804 117.966 95.6006 118.193C96.1263 118.42 96.5386 118.763 96.8374 119.222C97.1418 119.676 97.2939 120.246 97.2939 120.932V124.925C97.2939 125.334 97.3216 125.702 97.377 126.029C97.4378 126.35 97.5236 126.629 97.6343 126.867V127H95.584C95.4899 126.784 95.4152 126.51 95.3599 126.178C95.3101 125.841 95.2852 125.514 95.2852 125.199ZM95.5757 121.538L95.5923 122.775H94.1562C93.7855 122.775 93.459 122.811 93.1768 122.883C92.8945 122.949 92.6593 123.049 92.4712 123.182C92.283 123.314 92.1419 123.475 92.0479 123.663C91.9538 123.851 91.9067 124.064 91.9067 124.302C91.9067 124.54 91.9621 124.759 92.0728 124.958C92.1834 125.152 92.3439 125.304 92.5542 125.415C92.77 125.525 93.0301 125.581 93.3345 125.581C93.744 125.581 94.1009 125.498 94.4053 125.332C94.7152 125.16 94.9587 124.952 95.1357 124.709C95.3128 124.46 95.4069 124.225 95.418 124.003L96.0654 124.892C95.999 125.118 95.8856 125.362 95.7251 125.622C95.5646 125.882 95.3543 126.131 95.0942 126.369C94.8397 126.602 94.5326 126.792 94.1729 126.942C93.8187 127.091 93.4092 127.166 92.9443 127.166C92.3577 127.166 91.8348 127.05 91.3755 126.817C90.9162 126.579 90.5565 126.261 90.2964 125.863C90.0363 125.459 89.9062 125.002 89.9062 124.493C89.9062 124.017 89.9948 123.597 90.1719 123.231C90.3545 122.861 90.6201 122.551 90.9688 122.302C91.3229 122.053 91.7546 121.865 92.2637 121.737C92.7728 121.604 93.3538 121.538 94.0068 121.538H95.5757ZM104.673 121.646V123.24H99.8589V121.646H104.673ZM101.569 118.019V127H99.5684V118.019H101.569ZM103.196 122.609V122.418C103.196 121.771 103.29 121.17 103.478 120.617C103.666 120.058 103.94 119.574 104.3 119.164C104.66 118.749 105.097 118.428 105.611 118.201C106.126 117.969 106.71 117.853 107.363 117.853C108.027 117.853 108.616 117.969 109.131 118.201C109.651 118.428 110.091 118.749 110.451 119.164C110.81 119.574 111.084 120.058 111.272 120.617C111.461 121.17 111.555 121.771 111.555 122.418V122.609C111.555 123.256 111.461 123.857 111.272 124.41C111.084 124.964 110.81 125.448 110.451 125.863C110.097 126.272 109.659 126.593 109.139 126.826C108.625 127.053 108.038 127.166 107.379 127.166C106.721 127.166 106.134 127.053 105.62 126.826C105.105 126.593 104.665 126.272 104.3 125.863C103.94 125.448 103.666 124.964 103.478 124.41C103.29 123.857 103.196 123.256 103.196 122.609ZM105.205 122.418V122.609C105.205 123.013 105.246 123.395 105.329 123.754C105.412 124.114 105.542 124.43 105.719 124.701C105.896 124.972 106.123 125.185 106.4 125.34C106.677 125.495 107.003 125.572 107.379 125.572C107.756 125.572 108.079 125.495 108.351 125.34C108.627 125.185 108.854 124.972 109.031 124.701C109.208 124.43 109.338 124.114 109.421 123.754C109.51 123.395 109.554 123.013 109.554 122.609V122.418C109.554 122.02 109.51 121.643 109.421 121.289C109.338 120.929 109.208 120.611 109.031 120.334C108.854 120.058 108.627 119.842 108.351 119.687C108.074 119.527 107.745 119.446 107.363 119.446C106.992 119.446 106.668 119.527 106.392 119.687C106.12 119.842 105.896 120.058 105.719 120.334C105.542 120.611 105.412 120.929 105.329 121.289C105.246 121.643 105.205 122.02 105.205 122.418ZM126.488 125.415L126.33 129.665H124.496V127H123.417V125.415H126.488ZM113.223 118.019H115.224V125.406H118.079V118.019H120.088V125.406H122.935V118.019H124.936V127H113.223V118.019ZM130.041 124.078L133.568 118.019H135.569V127H133.568V120.932L130.041 127H128.04V118.019H130.041V124.078ZM143.023 124.576L145.696 118.019H147.431L143.704 127H142.342L138.624 118.019H140.358L143.023 124.576ZM139.844 118.019V127H137.843V118.019H139.844ZM146.202 127V118.019H148.211V127H146.202ZM39.1636 141.771V143.348H34.5151V141.771H39.1636ZM35.0962 138.019V147H33.0957V138.019H35.0962ZM40.6079 138.019V147H38.6074V138.019H40.6079ZM47.8047 145.199V140.916C47.8047 140.595 47.7466 140.318 47.6304 140.085C47.5142 139.853 47.3371 139.673 47.0991 139.546C46.8667 139.419 46.5734 139.355 46.2192 139.355C45.8927 139.355 45.6105 139.41 45.3726 139.521C45.1346 139.632 44.9492 139.781 44.8164 139.969C44.6836 140.157 44.6172 140.37 44.6172 140.608H42.625C42.625 140.254 42.7108 139.911 42.8823 139.579C43.0539 139.247 43.3029 138.951 43.6294 138.691C43.9559 138.431 44.346 138.226 44.7998 138.077C45.2536 137.927 45.7627 137.853 46.3271 137.853C47.0023 137.853 47.5999 137.966 48.1201 138.193C48.6458 138.42 49.0581 138.763 49.3569 139.222C49.6613 139.676 49.8135 140.246 49.8135 140.932V144.925C49.8135 145.334 49.8411 145.702 49.8965 146.029C49.9574 146.35 50.0431 146.629 50.1538 146.867V147H48.1035C48.0094 146.784 47.9347 146.51 47.8794 146.178C47.8296 145.841 47.8047 145.514 47.8047 145.199ZM48.0952 141.538L48.1118 142.775H46.6758C46.305 142.775 45.9785 142.811 45.6963 142.883C45.4141 142.949 45.1789 143.049 44.9907 143.182C44.8026 143.314 44.6615 143.475 44.5674 143.663C44.4733 143.851 44.4263 144.064 44.4263 144.302C44.4263 144.54 44.4816 144.759 44.5923 144.958C44.703 145.152 44.8634 145.304 45.0737 145.415C45.2896 145.525 45.5496 145.581 45.854 145.581C46.2635 145.581 46.6204 145.498 46.9248 145.332C47.2347 145.16 47.4782 144.952 47.6553 144.709C47.8324 144.46 47.9264 144.225 47.9375 144.003L48.585 144.892C48.5186 145.118 48.4051 145.362 48.2446 145.622C48.0841 145.882 47.8739 146.131 47.6138 146.369C47.3592 146.602 47.0521 146.792 46.6924 146.942C46.3382 147.091 45.9287 147.166 45.4639 147.166C44.8773 147.166 44.3543 147.05 43.895 146.817C43.4357 146.579 43.076 146.261 42.8159 145.863C42.5558 145.459 42.4258 145.002 42.4258 144.493C42.4258 144.017 42.5143 143.597 42.6914 143.231C42.874 142.861 43.1396 142.551 43.4883 142.302C43.8424 142.053 44.2741 141.865 44.7832 141.737C45.2923 141.604 45.8734 141.538 46.5264 141.538H48.0952ZM61.7749 134.084H63.3936C63.3936 134.576 63.3244 134.983 63.186 135.304C63.0532 135.62 62.854 135.88 62.5884 136.084C62.3283 136.284 62.0046 136.444 61.6172 136.566C61.2354 136.688 60.7926 136.798 60.2891 136.898C59.8242 136.998 59.4036 137.155 59.0273 137.371C58.6566 137.581 58.3439 137.877 58.0894 138.259C57.8403 138.636 57.6605 139.12 57.5498 139.712C57.4391 140.304 57.4059 141.026 57.4502 141.878V142.443L55.8647 142.584V142.02C55.8647 140.963 55.9616 140.041 56.1553 139.255C56.349 138.47 56.6229 137.808 56.9771 137.271C57.3368 136.729 57.7629 136.298 58.2554 135.977C58.7534 135.656 59.3068 135.434 59.9155 135.312C60.3306 135.224 60.6764 135.135 60.9531 135.047C61.2298 134.953 61.4346 134.834 61.5674 134.69C61.7057 134.541 61.7749 134.339 61.7749 134.084ZM60.3721 138.525C60.9697 138.525 61.501 138.63 61.9658 138.84C62.4307 139.045 62.8236 139.333 63.1445 139.704C63.4655 140.074 63.709 140.512 63.875 141.015C64.0465 141.519 64.1323 142.067 64.1323 142.659V142.841C64.1323 143.461 64.041 144.034 63.8584 144.56C63.6758 145.085 63.4074 145.545 63.0532 145.938C62.6991 146.325 62.2646 146.629 61.75 146.851C61.2409 147.066 60.6571 147.174 59.9985 147.174C59.3455 147.174 58.7617 147.061 58.2471 146.834C57.7324 146.607 57.298 146.292 56.9438 145.888C56.5897 145.478 56.3213 145 56.1387 144.452C55.9561 143.904 55.8647 143.306 55.8647 142.659V142.476C55.8592 142.36 55.8896 142.246 55.9561 142.136C56.028 142.025 56.1138 141.906 56.2134 141.779C56.313 141.652 56.4015 141.505 56.479 141.339C56.7557 140.78 57.0822 140.29 57.4585 139.87C57.8348 139.449 58.2637 139.12 58.7451 138.882C59.2321 138.644 59.7744 138.525 60.3721 138.525ZM59.9819 140.11C59.4839 140.11 59.0771 140.229 58.7617 140.467C58.4518 140.7 58.2222 141.01 58.0728 141.397C57.9289 141.784 57.8569 142.205 57.8569 142.659V142.841C57.8569 143.212 57.8984 143.563 57.9814 143.896C58.0645 144.228 58.189 144.521 58.355 144.775C58.5265 145.024 58.7479 145.221 59.019 145.365C59.2957 145.509 59.6222 145.581 59.9985 145.581C60.3804 145.581 60.7041 145.509 60.9697 145.365C61.2409 145.221 61.4595 145.024 61.6255 144.775C61.797 144.521 61.9215 144.228 61.999 143.896C62.082 143.563 62.1235 143.212 62.1235 142.841V142.659C62.1235 142.316 62.082 141.992 61.999 141.688C61.9215 141.383 61.797 141.115 61.6255 140.882C61.4539 140.644 61.2326 140.456 60.9614 140.318C60.6903 140.18 60.3638 140.11 59.9819 140.11ZM70.7646 145.199V140.916C70.7646 140.595 70.7065 140.318 70.5903 140.085C70.4741 139.853 70.297 139.673 70.0591 139.546C69.8267 139.419 69.5334 139.355 69.1792 139.355C68.8527 139.355 68.5705 139.41 68.3325 139.521C68.0946 139.632 67.9092 139.781 67.7764 139.969C67.6436 140.157 67.5771 140.37 67.5771 140.608H65.585C65.585 140.254 65.6707 139.911 65.8423 139.579C66.0138 139.247 66.2629 138.951 66.5894 138.691C66.9159 138.431 67.306 138.226 67.7598 138.077C68.2135 137.927 68.7227 137.853 69.2871 137.853C69.9622 137.853 70.5599 137.966 71.0801 138.193C71.6058 138.42 72.0181 138.763 72.3169 139.222C72.6213 139.676 72.7734 140.246 72.7734 140.932V144.925C72.7734 145.334 72.8011 145.702 72.8564 146.029C72.9173 146.35 73.0031 146.629 73.1138 146.867V147H71.0635C70.9694 146.784 70.8947 146.51 70.8394 146.178C70.7896 145.841 70.7646 145.514 70.7646 145.199ZM71.0552 141.538L71.0718 142.775H69.6357C69.265 142.775 68.9385 142.811 68.6562 142.883C68.374 142.949 68.1388 143.049 67.9507 143.182C67.7625 143.314 67.6214 143.475 67.5273 143.663C67.4333 143.851 67.3862 144.064 67.3862 144.302C67.3862 144.54 67.4416 144.759 67.5522 144.958C67.6629 145.152 67.8234 145.304 68.0337 145.415C68.2495 145.525 68.5096 145.581 68.814 145.581C69.2235 145.581 69.5804 145.498 69.8848 145.332C70.1947 145.16 70.4382 144.952 70.6152 144.709C70.7923 144.46 70.8864 144.225 70.8975 144.003L71.5449 144.892C71.4785 145.118 71.3651 145.362 71.2046 145.622C71.0441 145.882 70.8338 146.131 70.5737 146.369C70.3192 146.602 70.012 146.792 69.6523 146.942C69.2982 147.091 68.8887 147.166 68.4238 147.166C67.8372 147.166 67.3143 147.05 66.855 146.817C66.3957 146.579 66.036 146.261 65.7759 145.863C65.5158 145.459 65.3857 145.002 65.3857 144.493C65.3857 144.017 65.4743 143.597 65.6514 143.231C65.834 142.861 66.0996 142.551 66.4482 142.302C66.8024 142.053 67.234 141.865 67.7432 141.737C68.2523 141.604 68.8333 141.538 69.4863 141.538H71.0552ZM78.584 142.708H76.8574V141.696H78.252C78.6061 141.696 78.8883 141.649 79.0986 141.555C79.3145 141.461 79.4666 141.331 79.5552 141.165C79.6493 140.993 79.6963 140.794 79.6963 140.567C79.6963 140.368 79.6493 140.18 79.5552 140.002C79.4666 139.82 79.3145 139.67 79.0986 139.554C78.8828 139.438 78.5895 139.38 78.2188 139.38C77.9144 139.38 77.6405 139.43 77.397 139.529C77.159 139.629 76.9709 139.767 76.8325 139.944C76.6942 140.121 76.625 140.326 76.625 140.559H74.6245C74.6245 140 74.7822 139.518 75.0977 139.114C75.4186 138.71 75.8475 138.4 76.3843 138.185C76.9211 137.969 77.5104 137.861 78.1523 137.861C78.7002 137.861 79.1927 137.919 79.6299 138.035C80.0671 138.146 80.4378 138.312 80.7422 138.533C81.0521 138.749 81.2873 139.02 81.4478 139.347C81.6138 139.668 81.6968 140.041 81.6968 140.467C81.6968 140.772 81.6248 141.059 81.481 141.331C81.3371 141.602 81.1296 141.842 80.8584 142.053C80.5872 142.257 80.258 142.418 79.8706 142.534C79.4888 142.65 79.0599 142.708 78.584 142.708ZM76.8574 142.127H78.584C79.1152 142.127 79.5856 142.18 79.9951 142.285C80.4046 142.385 80.7477 142.534 81.0244 142.733C81.3011 142.933 81.5086 143.179 81.647 143.472C81.7909 143.76 81.8628 144.092 81.8628 144.468C81.8628 144.889 81.7715 145.268 81.5889 145.605C81.4118 145.938 81.1572 146.22 80.8252 146.452C80.4987 146.685 80.1086 146.862 79.6548 146.983C79.201 147.105 78.7002 147.166 78.1523 147.166C77.5547 147.166 76.9736 147.066 76.4092 146.867C75.8503 146.668 75.3882 146.361 75.0229 145.946C74.6632 145.525 74.4834 144.991 74.4834 144.344H76.4839C76.4839 144.571 76.5531 144.784 76.6914 144.983C76.8298 145.182 77.029 145.345 77.2891 145.473C77.5492 145.594 77.8618 145.655 78.2271 145.655C78.6034 145.655 78.9105 145.597 79.1484 145.481C79.3864 145.359 79.5635 145.201 79.6797 145.008C79.7959 144.809 79.854 144.598 79.854 144.377C79.854 144.078 79.7959 143.837 79.6797 143.655C79.5635 143.472 79.3864 143.339 79.1484 143.256C78.9105 143.168 78.6117 143.124 78.252 143.124H76.8574V142.127ZM87.5239 147.166C86.8599 147.166 86.2594 147.058 85.7227 146.842C85.1914 146.621 84.7376 146.314 84.3613 145.921C83.9906 145.528 83.7056 145.066 83.5063 144.535C83.3071 144.003 83.2075 143.431 83.2075 142.816V142.484C83.2075 141.782 83.3099 141.145 83.5146 140.575C83.7194 140.005 84.0044 139.518 84.3696 139.114C84.7349 138.705 85.1665 138.392 85.6646 138.176C86.1626 137.96 86.7021 137.853 87.2832 137.853C87.9251 137.853 88.4868 137.96 88.9683 138.176C89.4497 138.392 89.8481 138.696 90.1636 139.089C90.4845 139.477 90.7225 139.939 90.8774 140.476C91.0379 141.012 91.1182 141.604 91.1182 142.252V143.107H84.1787V141.671H89.1426V141.513C89.1315 141.153 89.0596 140.816 88.9268 140.5C88.7995 140.185 88.603 139.931 88.3374 139.737C88.0718 139.543 87.7176 139.446 87.2749 139.446C86.9429 139.446 86.6468 139.518 86.3867 139.662C86.1322 139.8 85.9191 140.002 85.7476 140.268C85.576 140.534 85.4432 140.855 85.3491 141.231C85.2606 141.602 85.2163 142.02 85.2163 142.484V142.816C85.2163 143.209 85.2689 143.575 85.374 143.912C85.4847 144.244 85.6452 144.535 85.8555 144.784C86.0658 145.033 86.3203 145.229 86.6191 145.373C86.918 145.511 87.2583 145.581 87.6401 145.581C88.1216 145.581 88.5505 145.484 88.9268 145.29C89.3031 145.096 89.6296 144.822 89.9062 144.468L90.9604 145.489C90.7668 145.771 90.515 146.043 90.2051 146.303C89.8952 146.557 89.5161 146.765 89.0679 146.925C88.6252 147.086 88.1105 147.166 87.5239 147.166ZM104.25 143.065H106.325C106.259 143.857 106.037 144.562 105.661 145.182C105.285 145.796 104.756 146.281 104.076 146.635C103.395 146.989 102.568 147.166 101.594 147.166C100.847 147.166 100.174 147.033 99.5767 146.768C98.979 146.496 98.4671 146.115 98.041 145.622C97.6149 145.124 97.2884 144.524 97.0615 143.821C96.8402 143.118 96.7295 142.332 96.7295 141.463V140.459C96.7295 139.59 96.8429 138.804 97.0698 138.102C97.3022 137.399 97.6343 136.798 98.0659 136.3C98.4976 135.797 99.015 135.412 99.6182 135.146C100.227 134.881 100.91 134.748 101.668 134.748C102.631 134.748 103.445 134.925 104.109 135.279C104.773 135.633 105.288 136.123 105.653 136.749C106.024 137.374 106.25 138.09 106.333 138.898H104.258C104.203 138.378 104.081 137.933 103.893 137.562C103.71 137.191 103.439 136.909 103.08 136.715C102.72 136.516 102.25 136.417 101.668 136.417C101.193 136.417 100.778 136.505 100.423 136.682C100.069 136.859 99.7731 137.119 99.5352 137.462C99.2972 137.806 99.1174 138.229 98.9956 138.732C98.8794 139.23 98.8213 139.8 98.8213 140.442V141.463C98.8213 142.072 98.8739 142.625 98.979 143.124C99.0897 143.616 99.2557 144.039 99.4771 144.394C99.7039 144.748 99.9917 145.022 100.34 145.215C100.689 145.409 101.107 145.506 101.594 145.506C102.186 145.506 102.665 145.412 103.03 145.224C103.401 145.035 103.68 144.762 103.868 144.402C104.062 144.037 104.189 143.591 104.25 143.065ZM117.78 134.914V147H115.705V136.574H110.334V147H108.259V134.914H117.78ZM129.924 140.625V141.289C129.924 142.202 129.805 143.021 129.567 143.746C129.329 144.471 128.989 145.088 128.546 145.597C128.109 146.106 127.583 146.496 126.969 146.768C126.355 147.033 125.674 147.166 124.927 147.166C124.186 147.166 123.508 147.033 122.894 146.768C122.285 146.496 121.756 146.106 121.308 145.597C120.86 145.088 120.511 144.471 120.262 143.746C120.019 143.021 119.897 142.202 119.897 141.289V140.625C119.897 139.712 120.019 138.896 120.262 138.176C120.506 137.451 120.849 136.834 121.292 136.325C121.74 135.811 122.268 135.42 122.877 135.155C123.491 134.884 124.169 134.748 124.911 134.748C125.658 134.748 126.338 134.884 126.953 135.155C127.567 135.42 128.095 135.811 128.538 136.325C128.981 136.834 129.321 137.451 129.559 138.176C129.803 138.896 129.924 139.712 129.924 140.625ZM127.841 141.289V140.608C127.841 139.933 127.774 139.338 127.642 138.824C127.514 138.304 127.323 137.869 127.069 137.521C126.82 137.166 126.513 136.901 126.147 136.724C125.782 136.541 125.37 136.45 124.911 136.45C124.451 136.45 124.042 136.541 123.682 136.724C123.322 136.901 123.015 137.166 122.761 137.521C122.512 137.869 122.321 138.304 122.188 138.824C122.055 139.338 121.989 139.933 121.989 140.608V141.289C121.989 141.964 122.055 142.562 122.188 143.082C122.321 143.602 122.514 144.042 122.769 144.402C123.029 144.756 123.339 145.024 123.699 145.207C124.058 145.384 124.468 145.473 124.927 145.473C125.392 145.473 125.804 145.384 126.164 145.207C126.524 145.024 126.828 144.756 127.077 144.402C127.326 144.042 127.514 143.602 127.642 143.082C127.774 142.562 127.841 141.964 127.841 141.289Z" fill="white"/>
<defs>
<linearGradient id="paint0_linear_1114_3070" x1="0" y1="0" x2="185.33" y2="182.737" gradientUnits="userSpaceOnUse">
<stop stop-color="#66E8FF"/>
<stop offset="1" stop-color="#0FB8D6"/>
</linearGradient>
</defs>
</svg>
